<svg width="33" height="33" viewBox="0 0 33 33" fill="none" xmlns="http://www.w3.org/2000/svg">
<circle cx="16.5" cy="16.5" r="16.5" fill="#C4C4C4" fill-opacity="0.25"/>
<path d="M16.5 9C12.3646 9 9 12.3644 9 16.5C9 20.6356 12.3646 24 16.5 24C20.6354 24 24 20.6356 24 16.5C24 12.3644 20.6354 9 16.5 9ZM16.5 23.0769C12.8735 23.0769 9.92308 20.1265 9.92308 16.5C9.92308 12.8735 12.8735 9.92308 16.5 9.92308C20.1265 9.92308 23.0769 12.8735 23.0769 16.5C23.0769 20.1265 20.1265 23.0769 16.5 23.0769Z" fill="#2D9CDB"/>
<path d="M16.6196 14.2812C17.0459 14.2812 17.3915 13.9355 17.3915 13.5092C17.3915 13.0829 17.0459 12.7373 16.6196 12.7373C16.1933 12.7373 15.8477 13.0829 15.8477 13.5092C15.8477 13.9355 16.1933 14.2812 16.6196 14.2812Z" fill="#2D9CDB"/>
<path d="M16.4166 15.541C16.1618 15.541 15.9551 15.7478 15.9551 16.0026V19.9256C15.9551 20.1804 16.1618 20.3872 16.4166 20.3872C16.6714 20.3872 16.8782 20.1804 16.8782 19.9256V16.0026C16.8782 15.7476 16.6714 15.541 16.4166 15.541Z" fill="#2D9CDB"/>
</svg>
