<svg width="26" height="30" viewBox="0 0 26 30" fill="none" xmlns="http://www.w3.org/2000/svg">
<path d="M12.6505 16.1648C12.6816 16.1648 12.7126 16.1648 12.7499 16.1648C12.7623 16.1648 12.7748 16.1648 12.7872 16.1648C12.8058 16.1648 12.8307 16.1648 12.8493 16.1648C14.6696 16.1338 16.1419 15.4939 17.2291 14.27C19.6209 11.5738 19.2233 6.95175 19.1798 6.51066C19.0245 3.19942 17.459 1.61524 16.1668 0.875958C15.2038 0.323048 14.0794 0.0248499 12.8245 0H12.781C12.7748 0 12.7623 0 12.7561 0H12.7189C12.0293 0 10.675 0.111824 9.37655 0.851108C8.07193 1.59039 6.48154 3.17457 6.32623 6.51066C6.28274 6.95175 5.88515 11.5738 8.27695 14.27C9.35791 15.4939 10.8303 16.1338 12.6505 16.1648ZM7.98496 6.66598C7.98496 6.64734 7.99117 6.6287 7.99117 6.61628C8.19618 2.16194 11.3583 1.68358 12.7126 1.68358H12.7375C12.7499 1.68358 12.7686 1.68358 12.7872 1.68358C14.4646 1.72085 17.3161 2.40422 17.5087 6.61628C17.5087 6.63491 17.5087 6.65355 17.5149 6.66598C17.5211 6.70946 17.956 10.9339 15.9804 13.158C15.1976 14.0402 14.1539 14.475 12.781 14.4875C12.7686 14.4875 12.7623 14.4875 12.7499 14.4875C12.7375 14.4875 12.7313 14.4875 12.7189 14.4875C11.3521 14.475 10.3022 14.0402 9.52565 13.158C7.5563 10.9464 7.97875 6.70325 7.98496 6.66598Z" fill="white"/>
<path d="M25.5163 23.831C25.5163 23.8248 25.5163 23.8186 25.5163 23.8124C25.5163 23.7627 25.5101 23.713 25.5101 23.6571C25.4728 22.427 25.392 19.5506 22.6958 18.6312C22.6772 18.625 22.6523 18.6188 22.6337 18.6126C19.8319 17.8981 17.5022 16.2829 17.4774 16.2643C17.0984 15.9971 16.5766 16.0903 16.3094 16.4693C16.0423 16.8482 16.1355 17.3701 16.5144 17.6372C16.62 17.7118 19.0926 19.4326 22.1864 20.2278C23.6339 20.7434 23.7954 22.2903 23.8389 23.7068C23.8389 23.7627 23.8389 23.8124 23.8451 23.8621C23.8513 24.4212 23.8141 25.2848 23.7147 25.7818C22.7083 26.3533 18.7633 28.3289 12.7621 28.3289C6.7857 28.3289 2.81594 26.3471 1.80331 25.7755C1.70391 25.2785 1.66042 24.415 1.67284 23.8559C1.67284 23.8062 1.67906 23.7565 1.67906 23.7006C1.72254 22.2841 1.88407 20.7372 3.33157 20.2216C6.42538 19.4264 8.89794 17.6993 9.00356 17.631C9.38251 17.3639 9.4757 16.842 9.20857 16.4631C8.94143 16.0841 8.41958 15.9909 8.04062 16.258C8.01577 16.2767 5.69852 17.8919 2.88428 18.6064C2.85943 18.6126 2.84079 18.6188 2.82215 18.625C0.12594 19.5506 0.0451782 22.427 0.00790342 23.6509C0.00790342 23.7068 0.00790328 23.7565 0.00169081 23.8062C0.00169081 23.8124 0.00169081 23.8186 0.00169081 23.8248C-0.00452165 24.1479 -0.010734 25.8066 0.318527 26.6391C0.380651 26.8006 0.492476 26.9373 0.641575 27.0305C0.827949 27.1547 5.29471 30 12.7683 30C20.2419 30 24.7087 27.1485 24.895 27.0305C25.0379 26.9373 25.156 26.8006 25.2181 26.6391C25.5287 25.8128 25.5225 24.1541 25.5163 23.831Z" fill="white"/>
</svg>
