<svg id="Capa_1" enable-background="new 0 0 528 528" height="512" viewBox="0 0 528 528" width="512" xmlns="http://www.w3.org/2000/svg"><path d="m247.5 396h33v33h-33z"/><path d="m247.502 165h32.998v198h-32.998z"/><path d="m412.5 66h-49.5v-49.5c0-9.12-7.38-16.5-16.5-16.5h-165c-9.12 0-16.5 7.38-16.5 16.5v49.5h-49.5c-27.296 0-49.5 22.204-49.5 49.5v363c0 27.296 22.204 49.5 49.5 49.5h297c27.296 0 49.5-22.204 49.5-49.5v-363c0-27.296-22.204-49.5-49.5-49.5zm-214.5-33h132v33h-132zm231 445.5c0 9.104-7.396 16.5-16.5 16.5h-297c-9.104 0-16.5-7.396-16.5-16.5v-363c0-9.104 7.396-16.5 16.5-16.5h297c9.104 0 16.5 7.396 16.5 16.5z"/></svg>