<svg width="54" height="54" viewBox="0 0 54 54" fill="none" xmlns="http://www.w3.org/2000/svg">
<g clip-path="url(#clip0)">
<path d="M39.1818 3.24805H14.1178C6.36384 3.24805 0.0558406 9.55605 0.0558406 17.31L0.0568406 25.945C-0.0621594 29.252 -0.416159 45.94 4.33984 49.677C4.60684 49.887 4.93484 49.996 5.26584 49.996C5.41984 49.996 5.57484 49.973 5.72484 49.925C6.19884 49.774 6.56684 49.395 6.70684 48.917C7.42684 46.453 10.1628 40.061 14.1188 40.061H39.1818C46.9358 40.061 53.2438 33.753 53.2438 25.999V17.311C53.2448 9.55505 46.9348 3.24805 39.1818 3.24805ZM50.2448 25.998C50.2448 32.098 45.2828 37.06 39.1828 37.06H14.1178C9.34384 37.06 6.36184 41.956 4.90184 45.224C3.31384 41.021 2.83384 32.203 3.05484 25.997V17.31C3.05484 11.21 8.01684 6.24805 14.1168 6.24805H39.1798C45.2798 6.24805 50.2418 11.21 50.2418 17.31V25.998H50.2448Z" fill="black"/>
</g>
<defs>
<clipPath id="clip0">
<rect width="53.245" height="53.244" fill="white"/>
</clipPath>
</defs>
</svg>
