<svg width="263" height="189" viewBox="0 0 263 189" fill="none" xmlns="http://www.w3.org/2000/svg">
<g clip-path="url(#clip0)">
<path d="M249.343 129.294H140.736V0H249.343V19.697H248.807V0.535666H141.273V128.759H248.807V82.5285H249.343V129.294Z" fill="#3F3D56"/>
<path d="M122.197 188.928H13.5898V142.162H14.126V188.393H121.661V60.1695H14.126V79.331H13.5898V59.6338H122.197V188.928Z" fill="#3F3D56"/>
<path d="M190.88 9.10254C185.319 9.10254 180.811 14.1007 180.811 20.2662V28.0996H183.222L184.618 25.1972L184.269 28.0996H199.77L201.039 25.4611L200.722 28.0996H202.467V21.949C202.467 14.8541 197.279 9.10254 190.88 9.10254Z" fill="#2F2E41"/>
<path d="M176.854 68.0078L181.689 90.9029C181.689 90.9029 181.689 99.5148 182.741 102.245C183.792 104.976 186.735 114.008 186.735 114.008L190.73 112.958L189.889 103.926C189.889 103.926 189.679 95.734 188.418 93.6335L187.997 72.2088L176.854 68.0078Z" fill="#FFB8B8"/>
<path d="M191.992 73.6795L202.715 93.0038C202.715 93.0038 205.028 100.145 206.71 101.826L211.125 110.228L214.489 108.967L211.546 95.7344C211.546 95.7344 209.233 89.433 207.13 87.3325C207.13 87.3325 204.187 70.1087 200.823 69.0584C197.459 68.0082 191.992 73.6795 191.992 73.6795Z" fill="#FFB8B8"/>
<path d="M191.151 111.067L185.684 112.328V118.629L182.53 125.561C182.53 125.561 181.549 127.813 183.161 128.291C184.674 128.74 189.426 130.494 190.099 126.611C190.238 125.746 190.529 124.913 190.958 124.15C192.24 121.918 192.681 119.301 192.2 116.772L191.151 111.067Z" fill="#2F2E41"/>
<path d="M215.121 107.497L210.07 108.219L211.126 119.05C211.418 119.403 211.568 119.852 211.546 120.31C211.546 121.15 211.126 124.721 214.28 124.511C217.434 124.301 218.485 122.83 218.485 121.99C218.485 121.15 216.803 115.479 216.803 115.479L215.121 107.497Z" fill="#2F2E41"/>
<path d="M189.258 25.5781C192.51 25.5781 195.145 22.9449 195.145 19.6967C195.145 16.4486 192.51 13.8154 189.258 13.8154C186.007 13.8154 183.371 16.4486 183.371 19.6967C183.371 22.9449 186.007 25.5781 189.258 25.5781Z" fill="#FFB8B8"/>
<path d="M193.674 22.2176C193.674 22.2176 194.515 27.4688 196.408 28.519C198.3 29.5692 200.823 30.8295 200.823 30.8295C200.823 30.8295 205.238 31.2496 205.449 34.6103L205.028 37.341L181.48 36.9209L180.639 30.4094L187.367 28.729C187.367 28.729 187.998 25.1582 187.367 23.4778C186.736 21.7975 193.674 22.2176 193.674 22.2176Z" fill="#FFB8B8"/>
<path d="M180.638 36.2906L168.865 37.1074C166.28 37.2867 163.975 35.3214 163.903 32.733C163.851 32.0537 164.044 31.3783 164.448 30.8294C166.13 28.7289 174.12 20.5371 174.12 20.5371C174.12 20.5371 179.586 17.1764 180.638 17.3864C181.689 17.5964 178.535 22.6376 176.643 23.0577C174.751 23.4778 176.433 22.8476 176.433 22.8476L168.443 31.8796L178.325 30.8294L180.638 36.2906Z" fill="#FFB8B8"/>
<path d="M114.514 188.872C114.452 188.772 113.002 186.352 112.499 181.327C112.037 176.717 112.334 168.946 116.368 158.106C124.01 137.571 114.607 121.002 114.511 120.837L114.975 120.568C114.999 120.61 117.426 124.835 118.859 131.561C120.753 140.479 120.063 149.752 116.871 158.293C109.242 178.793 114.913 188.497 114.972 188.593L114.514 188.872Z" fill="#3F3D56"/>
<path d="M111.524 119.632C113.449 119.632 115.01 118.073 115.01 116.15C115.01 114.227 113.449 112.668 111.524 112.668C109.599 112.668 108.039 114.227 108.039 116.15C108.039 118.073 109.599 119.632 111.524 119.632Z" fill="#6C63FF"/>
<path d="M122.517 132.487C124.441 132.487 126.002 130.928 126.002 129.005C126.002 127.082 124.441 125.523 122.517 125.523C120.592 125.523 119.031 127.082 119.031 129.005C119.031 130.928 120.592 132.487 122.517 132.487Z" fill="#6C63FF"/>
<path d="M115.011 141.058C116.936 141.058 118.496 139.5 118.496 137.577C118.496 135.654 116.936 134.095 115.011 134.095C113.086 134.095 111.525 135.654 111.525 137.577C111.525 139.5 113.086 141.058 115.011 141.058Z" fill="#6C63FF"/>
<path d="M124.126 148.29C126.051 148.29 127.611 146.731 127.611 144.808C127.611 142.885 126.051 141.326 124.126 141.326C122.201 141.326 120.641 142.885 120.641 144.808C120.641 146.731 122.201 148.29 124.126 148.29Z" fill="#6C63FF"/>
<path d="M112.329 159.538C114.254 159.538 115.814 157.979 115.814 156.056C115.814 154.133 114.254 152.574 112.329 152.574C110.404 152.574 108.844 154.133 108.844 156.056C108.844 157.979 110.404 159.538 112.329 159.538Z" fill="#6C63FF"/>
<path d="M116.618 189C116.618 189 113.133 180.429 123.589 174.001L116.618 189Z" fill="#3F3D56"/>
<path d="M112.334 188.845C112.334 188.845 110.747 179.731 98.4707 179.809L112.334 188.845Z" fill="#3F3D56"/>
<path d="M76.6151 105.062L75.5115 112.398L62.8989 120.921C62.8989 120.921 56.2674 124.096 56.6849 126.068C57.0571 127.826 62.1742 127.618 63.7845 124.899L78.8639 118.051L83.9071 108.077L76.6151 105.062Z" fill="#A0616A"/>
<path d="M78.291 175.012L78.8489 182.817L84.2433 182.445L83.3133 175.012H78.291Z" fill="#A0616A"/>
<path d="M79.7777 180.401C79.7777 180.401 79.0337 177.613 78.2896 177.799L77.1736 179.843C77.1736 179.843 72.1512 184.489 70.6631 184.675C70.6631 184.675 65.8268 186.161 70.6631 188.391H76.2435C76.2435 188.391 79.9637 188.205 80.7078 188.391C81.4518 188.577 85.7301 188.577 85.9161 187.462C86.1021 186.347 85.3581 184.117 85.3581 184.117C85.3581 184.117 84.6721 178.635 83.899 179.703C83.495 180.277 83.0501 180.82 82.5679 181.33L79.7777 180.401Z" fill="#2F2E41"/>
<path d="M92.2422 175.104L92.8004 182.909L98.1948 182.538L97.2645 175.104H92.2422Z" fill="#A0616A"/>
<path d="M93.7289 180.493C93.7289 180.493 92.9848 177.706 92.2408 177.892L91.1247 179.936C91.1247 179.936 86.1024 184.582 84.6143 184.767C84.6143 184.767 79.778 186.254 84.6143 188.484H90.1947C90.1947 188.484 93.9149 188.112 94.659 188.298C95.403 188.484 99.6813 188.484 99.8673 187.369C100.053 186.254 99.3092 184.21 99.3092 184.21C99.3092 184.21 98.6233 178.727 97.8502 179.796C97.4462 180.37 97.0013 180.913 96.5191 181.422L93.7289 180.493Z" fill="#2F2E41"/>
<path d="M71.0355 127.161L70.1055 128.462V131.063L76.0578 153.177L77.1739 158.008C77.1739 158.008 77.1739 176.591 78.29 176.591C79.4061 176.591 84.4284 177.149 84.4284 176.034C84.4284 174.919 84.0564 149.646 84.0564 149.646L89.0787 159.123C89.0787 159.123 91.3108 175.848 92.0549 176.034C92.7989 176.22 98.0072 176.034 98.3793 174.919L97.2632 164.327C97.2632 164.327 97.4492 152.434 94.287 149.832C94.287 149.832 93.729 146.673 93.1709 145.372C92.6129 144.071 91.6828 143.328 92.2409 142.399C92.7989 141.47 91.4968 131.249 91.4968 131.249C91.4968 131.249 91.8688 128.09 91.1248 127.161C90.3808 126.232 71.0355 127.161 71.0355 127.161Z" fill="#2F2E41"/>
<path d="M82.9421 84.9774C86.1268 84.9774 88.7085 82.3983 88.7085 79.2167C88.7085 76.0352 86.1268 73.4561 82.9421 73.4561C79.7575 73.4561 77.1758 76.0352 77.1758 79.2167C77.1758 82.3983 79.7575 84.9774 82.9421 84.9774Z" fill="#A0616A"/>
<path d="M86.5678 82.6545L86.1958 86.371L87.6839 87.6718L78.1973 92.1317C80.5341 88.1432 81.2262 84.5113 80.0574 81.9111L86.5678 82.6545Z" fill="#A0616A"/>
<path d="M80.0578 88.2294C80.0578 88.2294 78.5697 91.2026 80.4299 90.4593L86.1962 86.3711C86.1962 86.3711 92.5206 88.7869 94.7528 91.5743L92.8926 111.272L91.4045 125.209C91.4045 125.209 92.3346 126.882 92.1486 127.067C91.9626 127.253 91.7766 126.882 91.9626 127.439C92.1486 127.997 92.7066 127.439 92.1486 127.997C91.5906 128.554 91.0325 127.997 91.5906 128.554C92.1486 129.112 91.5906 129.297 91.5906 129.297C91.5906 129.297 90.8465 124.838 84.3361 128.182C77.8257 131.527 75.0355 132.457 70.1992 128.368L75.7796 107.184L76.2302 99.1939C76.3807 96.5251 76.856 93.8846 77.6458 91.3306C78.0724 89.9512 78.8156 88.5955 80.0578 87.8577L80.0578 88.2294Z" fill="#D0CDE1"/>
<path d="M90.0099 104.49L92.8 111.366L86.2896 125.117C86.2896 125.117 84.8015 126.789 85.7316 128.834C86.2121 129.926 86.7716 130.982 87.4057 131.993C87.4057 131.993 89.0798 131.249 89.0798 128.09L98.5664 114.525L97.8224 103.375L90.0099 104.49Z" fill="#A0616A"/>
<path d="M89.6377 92.2249C88.845 93.1241 88.2928 94.209 88.0326 95.3787C87.7724 96.5484 87.8127 97.7648 88.1497 98.9148C89.2657 103.003 90.1958 106.162 90.1958 106.162C90.1958 106.162 94.6601 102.817 98.3803 104.861C98.3803 104.861 97.8223 92.7824 94.6601 91.6674C91.4979 90.5525 89.6377 92.2249 89.6377 92.2249Z" fill="#D0CDE1"/>
<path d="M87.6816 74.2752C87.6816 74.2752 85.9198 70.4618 82.543 71.3418C79.1662 72.2218 77.2576 73.5419 77.1108 74.8619C77.0385 75.962 77.0631 77.0663 77.1842 78.1621C77.1842 78.1621 77.5512 75.4486 79.9003 76.0353C82.2494 76.622 85.9198 76.182 85.9198 76.182L86.5071 81.4622C86.5071 81.4622 87.5085 80.3958 88.2426 80.9824C88.9767 81.5691 90.0307 75.4486 87.6816 74.2752Z" fill="#2F2E41"/>
<path d="M183.581 31.0391L181.058 28.5186L179.797 29.7788L175.171 30.619C175.171 30.619 178.956 35.4501 179.166 37.5506L181.899 49.3132C181.899 49.3132 168.233 65.4868 172.648 68.0074C177.063 70.5279 188.627 75.359 189.048 74.3088C189.34 73.4913 189.552 72.647 189.679 71.7882C189.679 71.7882 189.048 74.7288 190.52 74.7288C191.991 74.7288 204.607 74.0987 204.186 70.948C203.766 67.7973 198.719 53.5141 198.719 53.5141L201.242 42.1716C201.242 42.1716 208.181 42.1716 208.391 40.4912L205.868 38.3907L206.709 34.1898L202.294 33.9798L201.663 34.82L198.299 33.5597L197.037 34.1898L188.627 32.9295L187.576 31.8793H184.212L183.581 31.0391Z" fill="#2F2E41"/>
<path d="M158.243 120.501C159.688 125.838 164.639 129.144 164.639 129.144C164.639 129.144 167.246 123.796 165.801 118.458C164.356 113.121 159.405 109.815 159.405 109.815C159.405 109.815 156.798 115.164 158.243 120.501Z" fill="#6C63FF"/>
<path d="M160.367 119.354C164.333 123.211 164.817 129.14 164.817 129.14C164.817 129.14 158.871 128.816 154.905 124.959C150.939 121.102 150.455 115.173 150.455 115.173C150.455 115.173 156.401 115.497 160.367 119.354Z" fill="#3F3D56"/>
<path d="M193.744 12.177C193.26 11.5269 192.632 10.9972 191.909 10.6288C191.187 10.2604 190.389 10.0633 189.578 10.0527H189.38C185.568 10.0527 182.479 13.4984 182.479 17.7488V17.7488H183.756L183.962 16.1804L184.264 17.7488H191.839L192.474 16.4219L192.315 17.7488H193.805C194.501 21.1988 193.502 24.6488 190.808 28.0988H193.346L194.616 25.4449L194.298 28.0988H199.137L200.089 21.995C200.089 17.4237 197.431 13.5475 193.744 12.177Z" fill="#2F2E41"/>
<path d="M201.979 77.7753V68.2854C201.979 60.0014 205.596 52.0569 212.051 46.8572C216.876 42.9707 223.865 40.0644 233.876 40.7139L230.062 25.4736L263 47.9876L230.755 70.5016L234.049 56.1273C234.049 56.1273 213.94 52.3172 201.979 77.7753Z" fill="#6C63FF"/>
<path d="M61.0211 138.848V129.358C61.0211 121.074 57.4033 113.129 50.9482 107.929C46.1233 104.043 39.135 101.137 29.1237 101.786L32.9375 86.5459L0 109.06L32.2441 131.574L28.9503 117.2C28.9503 117.2 49.0595 113.389 61.0211 138.848Z" fill="#6C63FF"/>
<path d="M205.448 38.1816L205.238 50.9945L206.289 66.1179C206.289 66.1179 207.971 74.7298 204.186 73.2595C200.402 71.7891 201.874 65.2777 201.874 65.2777L201.663 49.9443V38.3917L205.448 38.1816Z" fill="#FFB8B8"/>
<path d="M200.928 37.6847V42.1657C202.474 42.1164 204.011 41.9039 205.513 41.5318L205.553 37.2354L200.928 37.6847Z" fill="#2F2E41"/>
</g>
<defs>
<clipPath id="clip0">
<rect width="263" height="189" fill="white"/>
</clipPath>
</defs>
</svg>
