<?xml version="1.0" encoding="iso-8859-1"?>
<!-- Generator: Adobe Illustrator 18.0.0, SVG Export Plug-In . SVG Version: 6.00 Build 0)  -->
<!DOCTYPE svg PUBLIC "-//W3C//DTD SVG 1.1//EN" "http://www.w3.org/Graphics/SVG/1.1/DTD/svg11.dtd">
<svg version="1.1" id="Capa_1" xmlns="http://www.w3.org/2000/svg" xmlns:xlink="http://www.w3.org/1999/xlink" x="0px" y="0px"
	 viewBox="0 0 491.793 491.793" style="enable-background:new 0 0 491.793 491.793;" xml:space="preserve">
<g>
	<path d="M288.397,100.996c27.845,0,50.498-22.653,50.498-50.498C338.895,22.653,316.242,0,288.397,0s-50.498,22.653-50.498,50.497
		C237.899,78.342,260.552,100.996,288.397,100.996z M288.397,8.5c23.158,0,41.998,18.84,41.998,41.998
		c0,23.158-18.84,41.998-41.998,41.998s-41.998-18.841-41.998-41.999C246.399,27.34,265.239,8.5,288.397,8.5z"/>
	<path d="M409.85,196.698l-71.737-43.863c-0.188-27.259-22.414-49.379-49.716-49.379c-23.362,0-43.272,16.022-48.432,38.499
		l-84.072,16.804c-6.611,1.321-12.313,5.138-16.054,10.748c-3.74,5.61-5.073,12.341-3.752,18.954
		c1.12,5.608,4.085,10.466,8.163,14.033h-19.273c-7.985,0-14.481,6.497-14.481,14.482v3.937H82.963
		c-7.217,0-13.088,5.871-13.088,13.088v84.401c0,7.216,5.871,13.087,13.088,13.087h122.404c7.216,0,13.087-5.871,13.087-13.087
		v-84.401c0-7.217-5.871-13.088-13.087-13.088h-27.535v-3.937c0-4.006-1.637-7.637-4.274-10.261l65.113-13.015v90.502
		c0,3.379,0.354,6.69,1.008,9.903l-50.177,152.309c-2.791,8.466-2.117,17.512,1.896,25.47c4.014,7.958,10.887,13.877,19.353,16.667
		c3.455,1.138,6.964,1.679,10.418,1.679c14.017-0.001,27.099-8.908,31.72-22.929l32.574-98.869l25.357,98.316
		c3.802,14.746,17.08,25.044,32.291,25.044c2.805,0,5.615-0.358,8.354-1.065c8.632-2.226,15.881-7.679,20.41-15.356
		c4.529-7.676,5.797-16.658,3.57-25.289l-39.244-152.182c1.271-4.444,1.922-9.045,1.922-13.698l-0.001-72.184l45.391,27.753
		c4.101,2.507,8.64,3.7,13.127,3.7c8.509,0,16.826-4.295,21.579-12.07C425.478,219.526,421.724,203.958,409.85,196.698z
		 M146.912,174.223c2.48-3.721,6.263-6.253,10.647-7.129l118.719-23.729c1.091-0.218,2.202-0.329,3.303-0.329
		c7.942,0,14.838,5.665,16.397,13.469c1.809,9.053-4.085,17.891-13.139,19.7l-40.771,8.149c-0.003,0-0.005,0.001-0.008,0.001
		l-77.937,15.577c-1.091,0.218-2.203,0.329-3.304,0.329c-7.942,0-14.838-5.663-16.396-13.466
		C143.547,182.409,144.43,177.944,146.912,174.223z M205.367,322.989H82.963c-2.529,0-4.588-2.058-4.588-4.587v-40.897h53.864v2.401
		c0,6.575,5.349,11.924,11.924,11.924c6.576,0,11.926-5.349,11.926-11.924v-2.401h53.865v40.897
		C209.954,320.932,207.896,322.989,205.367,322.989z M140.739,279.907v-10.233c0-1.888,1.536-3.424,3.424-3.424
		c1.889,0,3.426,1.536,3.426,3.424v10.233c0,1.888-1.537,3.424-3.426,3.424C142.275,283.331,140.739,281.795,140.739,279.907z
		 M209.954,234.001v35.005h-53.899c-0.35-6.264-5.541-11.256-11.892-11.256c-6.35,0-11.54,4.992-11.89,11.256H78.375v-35.005
		c0-2.53,2.059-4.588,4.588-4.588h122.404C207.896,229.413,209.954,231.471,209.954,234.001z M118.996,220.913v-3.937
		c0-3.299,2.684-5.982,5.981-5.982h38.372c3.299,0,5.982,2.684,5.982,5.982v3.937H118.996z M284.506,184.54
		c13.648-2.727,22.535-16.051,19.809-29.701c-2.352-11.765-12.753-20.304-24.733-20.304c-1.658,0-3.33,0.166-4.969,0.494
		l-25.309,5.059c5.514-16.621,21.062-28.132,39.094-28.132c22.731,0,41.225,18.494,41.225,41.226l0.001,125.136
		c-5.95-9.681-16.595-15.894-28.406-15.894c-2.804,0-5.614,0.358-8.353,1.064c-17.819,4.595-28.579,22.829-23.984,40.647
		l4.791,18.574c-15.698-5.999-26.5-21.224-26.5-38.507v-92.2L284.506,184.54z M244.816,464.64
		c-4.293,13.024-18.385,20.129-31.405,15.838c-6.31-2.079-11.433-6.49-14.423-12.421c-2.991-5.931-3.493-12.672-1.414-18.982
		l46.745-141.892c6.421,12.284,17.853,21.674,31.849,25.212l5.365,20.803L244.816,464.64z M364.553,471.053
		c-1.134,1.921-2.514,3.637-4.066,5.157l-23.436-93.046c-0.573-2.277-2.885-3.66-5.159-3.083c-2.276,0.573-3.656,2.883-3.083,5.159
		l24.177,95.984c-1.175,0.504-2.383,0.948-3.644,1.273c-2.046,0.527-4.142,0.795-6.231,0.795c-11.333,0-21.227-7.676-24.061-18.667
		L290.05,352.189v-0.001l-12.94-50.174c-3.424-13.28,4.596-26.87,17.877-30.294c2.045-0.527,4.141-0.795,6.229-0.795
		c11.333,0,21.228,7.676,24.064,18.667l41.935,162.615C368.874,458.639,367.929,465.332,364.553,471.053z M410.966,226.97
		c-4.815,7.876-15.141,10.367-23.021,5.551l-49.824-30.464v-39.253l67.295,41.146C413.292,208.765,415.782,219.092,410.966,226.97z"
		/>
	<path d="M316.139,317.538c-2.276,0.573-3.656,2.883-3.083,5.159l7.693,30.544c0.485,1.928,2.217,3.213,4.118,3.213
		c0.344,0,0.692-0.042,1.041-0.13c2.276-0.573,3.656-2.883,3.083-5.159l-7.693-30.544
		C320.725,318.345,318.416,316.963,316.139,317.538z"/>
</g>
<g>
</g>
<g>
</g>
<g>
</g>
<g>
</g>
<g>
</g>
<g>
</g>
<g>
</g>
<g>
</g>
<g>
</g>
<g>
</g>
<g>
</g>
<g>
</g>
<g>
</g>
<g>
</g>
<g>
</g>
</svg>
