<svg fill="none" height="18" viewBox="0 0 18 18" width="18" xmlns="http://www.w3.org/2000/svg">
<path d="M9 0C4.0374 0 0 4.0374 0 9C0 13.9626 4.0374 18 9 18C13.9626 18 18 13.9626 18 9C18 4.0374 13.9626 0 9 0ZM9 16.085C5.09339 16.085 1.91486 12.9068 1.91486 9C1.91486 5.09321 5.09339 1.91505 9 1.91505C12.9066 1.91505 16.0851 5.09321 16.0851 9C16.0851 12.9068 12.9066 16.085 9 16.085Z" fill="#4F4F4F"/>
<path d="M13.6908 8.72232H9.64615V3.85921C9.64615 3.44997 9.31435 3.11816 8.90511 3.11816C8.49587 3.11816 8.16406 3.44997 8.16406 3.85921V9.46337C8.16406 9.87261 8.49587 10.2044 8.90511 10.2044H13.6908C14.1 10.2044 14.4318 9.87261 14.4318 9.46337C14.4318 9.05413 14.1 8.72232 13.6908 8.72232Z" fill="#4F4F4F"/>
</svg>
