<svg xmlns="http://www.w3.org/2000/svg" width="22.864" height="22.864" viewBox="0 0 22.864 22.864">
  <path id="Icon_awesome-cookie-bite" data-name="Icon awesome-cookie-bite" d="M22.8,11.424a5.713,5.713,0,0,1-5.648-5.71A5.713,5.713,0,0,1,11.44.068,5.893,5.893,0,0,0,7.88.64L4.793,2.213A5.9,5.9,0,0,0,2.213,4.794L.645,7.87a5.923,5.923,0,0,0-.572,3.615l.539,3.406a5.918,5.918,0,0,0,1.659,3.258l2.446,2.445A5.9,5.9,0,0,0,7.964,22.25l3.426.543a5.891,5.891,0,0,0,3.6-.57l3.087-1.572a5.907,5.907,0,0,0,2.581-2.582l1.567-3.076A5.921,5.921,0,0,0,22.8,11.424ZM7.859,16.434A1.429,1.429,0,1,1,9.288,15,1.429,1.429,0,0,1,7.859,16.434ZM9.288,9.289A1.429,1.429,0,1,1,10.717,7.86,1.429,1.429,0,0,1,9.288,9.289ZM16.433,15a1.429,1.429,0,1,1,1.429-1.429A1.429,1.429,0,0,1,16.433,15Z" transform="translate(0 0)" fill="#52616c"/>
</svg>
