<svg width="18" height="18" viewBox="0 0 18 18" fill="none" xmlns="http://www.w3.org/2000/svg">
<g clip-path="url(#clip0)">
<path d="M17.9084 0.736696C17.8282 0.666418 17.7142 0.650113 17.6176 0.694938L0.155693 8.80823C0.0616842 8.85193 0.00114612 8.94572 1.60703e-05 9.04936C-0.00111397 9.153 0.0574331 9.24809 0.150527 9.29377L5.09221 11.719C5.18283 11.7635 5.29089 11.7534 5.37182 11.6929L10.1765 8.10184L6.40463 11.9817C6.35081 12.037 6.32337 12.1129 6.32929 12.1898L6.70484 17.0807C6.71318 17.1891 6.78583 17.2817 6.88909 17.3157C6.9167 17.3247 6.94506 17.3291 6.97309 17.3291C7.04999 17.3291 7.12479 17.2962 7.17682 17.2359L9.79971 14.1965L13.0421 15.7457C13.1125 15.7794 13.194 15.7808 13.2655 15.7497C13.337 15.7185 13.3915 15.6579 13.4148 15.5836L17.9876 1.01958C18.0196 0.91788 17.9884 0.806974 17.9084 0.736696Z" fill="#2D9CDB"/>
</g>
<defs>
<clipPath id="clip0">
<rect width="18" height="18" fill="white"/>
</clipPath>
</defs>
</svg>
