<svg width="20" height="20" viewBox="0 0 20 20" fill="none" xmlns="http://www.w3.org/2000/svg">
<g clip-path="url(#clip0)">
<path d="M0.936022 18.0917C1.01479 18.1635 1.12848 18.182 1.22597 18.139L18.8398 10.3612C18.9347 10.3193 18.997 10.2267 19.0001 10.1231C19.0032 10.0195 18.9465 9.92328 18.8543 9.87582L13.9599 7.35656C13.8701 7.31034 13.7619 7.31833 13.6798 7.37726L8.80736 10.8758L12.6528 7.0688C12.7076 7.01447 12.7365 6.93919 12.7321 6.86214L12.4501 1.96496C12.4439 1.85644 12.373 1.76241 12.2704 1.72648C12.243 1.71691 12.2147 1.71196 12.1867 1.71142C12.1098 1.70995 12.0344 1.7415 11.9812 1.80077L9.30065 4.78943L6.08845 3.17846C6.01872 3.14349 5.93729 3.14053 5.8652 3.17026C5.7931 3.20004 5.73749 3.25958 5.71272 3.33349L0.862183 17.8073C0.82828 17.9084 0.857309 18.0199 0.936022 18.0917Z" fill="#ED6262"/>
</g>
<defs>
<clipPath id="clip0">
<rect width="18" height="18" fill="white" transform="translate(18.8262 19.1709) rotate(-178.904)"/>
</clipPath>
</defs>
</svg>
