<svg width="24" height="24" viewBox="0 0 24 24" fill="none" xmlns="http://www.w3.org/2000/svg">
<g clip-path="url(#clip0)">
<path d="M5.89606 20.1924C3.8795 20.1924 1.73633 20.8596 1.73633 22.0961C1.73633 23.3325 3.87955 23.9998 5.89606 23.9998C7.91258 23.9998 10.0558 23.3325 10.0558 22.0961C10.0558 20.8596 7.91258 20.1924 5.89606 20.1924Z" fill="#FFDB56"/>
<path d="M5.89422 7.21387C2.64953 7.21387 0.00976562 9.85363 0.00976562 13.0983C0.00976562 15.1129 0.968078 17.2789 2.85813 19.5362C4.24966 21.1981 5.62108 22.2661 5.67883 22.3108C5.7422 22.3599 5.81823 22.3844 5.89422 22.3844C5.9702 22.3844 6.04619 22.3599 6.10961 22.3108C6.16731 22.2661 7.53883 21.1981 8.93031 19.5362C10.8204 17.2789 11.7787 15.1128 11.7787 13.0983C11.7787 9.85363 9.13891 7.21387 5.89422 7.21387ZM8.10086 13.0983C8.10086 14.317 7.11292 15.3049 5.89422 15.3049C4.67556 15.3049 3.68762 14.317 3.68762 13.0983C3.68762 11.8797 4.67556 10.8917 5.89422 10.8917C7.11292 10.8917 8.10086 11.8797 8.10086 13.0983Z" fill="#FF4A4A"/>
<path d="M21.5863 10.3499C20.9924 10.1079 20.2102 9.97461 19.384 9.97461C18.5579 9.97461 17.7758 10.1079 17.1818 10.3499C16.4877 10.6328 16.1055 11.0481 16.1055 11.5192C16.1055 11.9903 16.4877 12.4057 17.1818 12.6885C17.7757 12.9305 18.5578 13.0638 19.384 13.0638C20.2102 13.0638 20.9923 12.9305 21.5863 12.6885C22.2803 12.4057 22.6625 11.9903 22.6625 11.5192C22.6625 11.0481 22.2803 10.6328 21.5863 10.3499Z" fill="#FFDB56"/>
<path d="M5.89606 23.1215C4.13328 23.1215 2.2738 22.6116 1.83369 21.6572C1.77036 21.7946 1.73633 21.9411 1.73633 22.0968C1.73633 23.3333 3.87955 24.0005 5.89606 24.0005C7.91258 24.0005 10.0558 23.3332 10.0558 22.0968C10.0558 21.9412 10.0218 21.7946 9.95844 21.6572C9.51837 22.6116 7.65889 23.1215 5.89606 23.1215Z" fill="#FFBB24"/>
<path d="M21.5882 11.8098C20.9943 12.0518 20.2122 12.1851 19.386 12.1851C18.5598 12.1851 17.7777 12.0518 17.1837 11.8098C16.7156 11.619 16.39 11.3678 16.2272 11.0801C16.1486 11.219 16.1074 11.3662 16.1074 11.5196C16.1074 11.9908 16.4896 12.4061 17.1838 12.6889C17.7777 12.9309 18.5598 13.0642 19.386 13.0642C20.2122 13.0642 20.9943 12.9309 21.5882 12.6889C22.2823 12.4061 22.6645 11.9908 22.6645 11.5196C22.6645 11.3663 22.6233 11.219 22.5447 11.0801C22.3819 11.3678 22.0563 11.619 21.5882 11.8098Z" fill="#FFBB24"/>
<path d="M19.3853 0C16.8466 0 14.7812 2.06541 14.7812 4.60406C14.7812 6.17203 15.5242 7.85433 16.9894 9.60436C18.0645 10.8884 19.1253 11.7144 19.17 11.749C19.2334 11.7981 19.3094 11.8226 19.3854 11.8226C19.4613 11.8226 19.5373 11.7981 19.6007 11.749C19.6454 11.7144 20.7063 10.8884 21.7813 9.60436C23.2465 7.85438 23.9894 6.17208 23.9894 4.60406C23.9893 2.06541 21.924 0 19.3853 0ZM21.0813 4.60406C21.0813 5.54072 20.322 6.30005 19.3853 6.30005C18.4487 6.30005 17.6893 5.54072 17.6893 4.60406C17.6893 3.66741 18.4487 2.90813 19.3853 2.90813C20.322 2.90813 21.0813 3.66741 21.0813 4.60406Z" fill="#FF4A4A"/>
<path d="M5.89528 7.21387C5.67117 7.21387 5.45011 7.2269 5.23247 7.25141C8.16623 7.58179 10.4541 10.0777 10.4541 13.0983C10.4541 15.1129 9.49575 17.2789 7.6057 19.5362C6.67748 20.6448 5.75883 21.4884 5.23242 21.9411C5.4952 22.167 5.66067 22.2959 5.67989 22.3108C5.74327 22.3598 5.8193 22.3844 5.89528 22.3844C5.97127 22.3844 6.04725 22.3598 6.11067 22.3108C6.16837 22.2661 7.53989 21.1981 8.93137 19.5361C10.8214 17.2788 11.7797 15.1128 11.7797 13.0983C11.7797 9.85363 9.13997 7.21387 5.89528 7.21387Z" fill="#E7343F"/>
<path d="M19.3855 0C19.1605 0 18.9392 0.0165 18.7227 0.0479062C20.9483 0.370219 22.6639 2.29045 22.6639 4.60406C22.6639 6.17203 21.9209 7.85433 20.4558 9.60436C19.795 10.3935 19.1401 11.0093 18.7227 11.375C18.9844 11.6043 19.1529 11.7357 19.1701 11.7489C19.2335 11.798 19.3095 11.8225 19.3855 11.8225C19.4615 11.8225 19.5374 11.798 19.6009 11.7489C19.6455 11.7144 20.7064 10.8883 21.7814 9.60431C23.2467 7.85433 23.9896 6.17203 23.9896 4.60402C23.9895 2.06541 21.9242 0 19.3855 0Z" fill="#E7343F"/>
<path d="M11.3538 22.4481C11.1603 22.4481 11.0028 22.2917 11.002 22.0978C11.0011 21.9034 11.1579 21.7451 11.3523 21.7443L11.8171 21.7422C11.8177 21.7422 11.8182 21.7422 11.8188 21.7422C12.0123 21.7422 12.1698 21.8986 12.1706 22.0925C12.1715 22.2869 12.0147 22.4452 11.8203 22.446L11.3555 22.4481C11.3549 22.4481 11.3544 22.4481 11.3538 22.4481ZM13.2131 22.4397C13.0196 22.4397 12.8621 22.2832 12.8613 22.0894C12.8604 21.895 13.0172 21.7367 13.2116 21.7358L13.6764 21.7337C13.677 21.7337 13.6775 21.7337 13.6781 21.7337C13.8716 21.7337 14.0291 21.8902 14.0299 22.0841C14.0308 22.2785 13.874 22.4368 13.6796 22.4376L13.2148 22.4397C13.2142 22.4397 13.2137 22.4397 13.2131 22.4397ZM15.0725 22.4312C14.8789 22.4312 14.7215 22.2748 14.7206 22.0809C14.7197 21.8865 14.8766 21.7282 15.0709 21.7274L15.5357 21.7252C15.5363 21.7252 15.5368 21.7252 15.5373 21.7252C15.7309 21.7252 15.8883 21.8817 15.8892 22.0756C15.8901 22.27 15.7333 22.4283 15.5389 22.4291L15.0741 22.4312C15.0736 22.4312 15.073 22.4312 15.0725 22.4312ZM16.9318 22.4228C16.7382 22.4228 16.5808 22.2663 16.5799 22.0724C16.5791 21.8781 16.7359 21.7198 16.9303 21.7189L17.3951 21.7168C17.3957 21.7168 17.3962 21.7168 17.3967 21.7168C17.5903 21.7168 17.7477 21.8733 17.7486 22.0671C17.7495 22.2615 17.5927 22.4198 17.3983 22.4207L16.9335 22.4228C16.9329 22.4228 16.9323 22.4228 16.9318 22.4228ZM18.7911 22.4144C18.5975 22.4144 18.4401 22.2579 18.4392 22.0641C18.4383 21.8697 18.5952 21.7114 18.7896 21.7105L19.2544 21.7084C19.255 21.7084 19.2555 21.7084 19.256 21.7084C19.4496 21.7084 19.607 21.8649 19.6079 22.0588C19.6088 22.2531 19.452 22.4114 19.2576 22.4123L18.7928 22.4144C18.7922 22.4144 18.7917 22.4144 18.7911 22.4144ZM20.6505 22.406C20.4569 22.406 20.2995 22.2495 20.2986 22.0557C20.2976 21.8614 20.4544 21.703 20.6488 21.7021L20.7147 21.7018C20.8324 21.7012 20.9504 21.6929 21.0657 21.677C21.2579 21.6501 21.4358 21.7849 21.4625 21.9774C21.4891 22.1699 21.3546 22.3476 21.162 22.3742C21.016 22.3944 20.8666 22.405 20.7179 22.4056L20.6522 22.406C20.6516 22.406 20.651 22.406 20.6505 22.406ZM22.4013 21.8758C22.2898 21.8758 22.1801 21.8229 22.1118 21.7243C22.0011 21.5646 22.0407 21.3453 22.2005 21.2345C22.3126 21.1568 22.4194 21.0697 22.5182 20.9756C22.6588 20.8415 22.8816 20.8469 23.0158 20.9876C23.1498 21.1283 23.1445 21.3511 23.0038 21.4852C22.8788 21.6044 22.7434 21.7146 22.6016 21.8129C22.5403 21.8554 22.4705 21.8758 22.4013 21.8758ZM23.5143 20.4245C23.4751 20.4245 23.4351 20.4179 23.3961 20.404C23.213 20.3387 23.1176 20.1374 23.1828 19.9543C23.2285 19.8261 23.2644 19.6932 23.2896 19.5592C23.3256 19.3682 23.5098 19.2426 23.7006 19.2786C23.8916 19.3145 24.0173 19.4985 23.9813 19.6895C23.9493 19.8594 23.9037 20.0281 23.8457 20.1907C23.7944 20.3347 23.6589 20.4245 23.5143 20.4245ZM23.5713 18.5964C23.4183 18.5964 23.2774 18.4958 23.2332 18.3414C23.1956 18.2106 23.1474 18.0816 23.0897 17.9581C23.0075 17.782 23.0837 17.5725 23.2598 17.4904C23.4362 17.4082 23.6454 17.4844 23.7276 17.6605C23.8008 17.8173 23.862 17.9811 23.9097 18.1472C23.9633 18.334 23.8554 18.529 23.6686 18.5826C23.6361 18.5919 23.6034 18.5964 23.5713 18.5964ZM22.5506 17.0781C22.4741 17.0781 22.3973 17.0534 22.3327 17.0024C22.2257 16.9179 22.1111 16.8412 21.9926 16.7744C21.8232 16.679 21.7632 16.4643 21.8586 16.295C21.954 16.1256 22.1688 16.0656 22.338 16.1611C22.4883 16.2457 22.6332 16.3429 22.7688 16.4499C22.9214 16.5704 22.9474 16.7917 22.827 16.9442C22.7576 17.0323 22.6546 17.0781 22.5506 17.0781ZM20.8374 16.4403C20.8321 16.4403 20.8268 16.4402 20.8215 16.4399C20.7822 16.4382 20.7426 16.4373 20.7028 16.4373H20.3723C20.1779 16.4373 20.0204 16.2798 20.0204 16.0853C20.0204 15.891 20.1779 15.7334 20.3723 15.7334H20.7028C20.7525 15.7334 20.8029 15.7345 20.8526 15.7367C21.0468 15.7453 21.1973 15.9097 21.1886 16.1039C21.1803 16.2928 21.0245 16.4403 20.8374 16.4403ZM18.9778 16.4373H18.513C18.3186 16.4373 18.1611 16.2798 18.1611 16.0854C18.1611 15.891 18.3186 15.7334 18.513 15.7334H18.9778C19.1722 15.7334 19.3298 15.891 19.3298 16.0854C19.3298 16.2798 19.1722 16.4373 18.9778 16.4373ZM17.1185 16.4373H16.6537C16.4593 16.4373 16.3017 16.2798 16.3017 16.0854C16.3017 15.891 16.4593 15.7334 16.6537 15.7334H17.1185C17.3129 15.7334 17.4704 15.891 17.4704 16.0854C17.4704 16.2798 17.3129 16.4373 17.1185 16.4373ZM15.2591 16.4373H14.7943C14.5999 16.4373 14.4423 16.2798 14.4423 16.0854C14.4423 15.891 14.5999 15.7334 14.7943 15.7334H15.2591C15.4535 15.7334 15.611 15.891 15.611 16.0854C15.611 16.2798 15.4535 16.4373 15.2591 16.4373ZM13.4662 16.0873C13.402 16.0873 13.337 16.0697 13.2788 16.033C13.1279 15.9378 12.9861 15.8267 12.8573 15.7029C12.7173 15.5682 12.7129 15.3454 12.8477 15.2053C12.9823 15.0653 13.2051 15.0609 13.3452 15.1956C13.4397 15.2864 13.5437 15.368 13.6543 15.4377C13.8187 15.5414 13.8679 15.7587 13.7642 15.9231C13.6972 16.0291 13.5829 16.0873 13.4662 16.0873ZM12.4433 14.5964C12.2782 14.5964 12.131 14.4797 12.0982 14.3117C12.066 14.1462 12.0496 13.9761 12.0496 13.8061L12.0498 13.7784C12.052 13.5854 12.2091 13.4305 12.4016 13.4305C12.403 13.4305 12.4044 13.4305 12.4058 13.4306C12.6002 13.4328 12.7559 13.5922 12.7536 13.7865L12.7535 13.8061C12.7535 13.931 12.7655 14.0558 12.7891 14.1771C12.8263 14.3678 12.7018 14.5526 12.511 14.5898C12.4883 14.5942 12.4656 14.5964 12.4433 14.5964ZM12.8279 12.8301C12.7568 12.8301 12.6851 12.8086 12.6229 12.764C12.465 12.6506 12.429 12.4307 12.5423 12.2728C12.6465 12.1278 12.7658 11.9929 12.897 11.8719C13.04 11.7402 13.2626 11.7492 13.3943 11.892C13.5261 12.0349 13.5171 12.2575 13.3743 12.3893C13.278 12.4781 13.1905 12.577 13.1141 12.6834C13.0453 12.7791 12.9374 12.8301 12.8279 12.8301ZM14.3772 11.8987C14.2035 11.8987 14.0524 11.7701 14.0288 11.5932C14.0032 11.4005 14.1386 11.2235 14.3313 11.1979C14.4463 11.1826 14.5638 11.1748 14.6808 11.1748H14.8415C15.0359 11.1748 15.1935 11.3324 15.1935 11.5267C15.1935 11.7211 15.0359 11.8787 14.8415 11.8787H14.6808C14.5948 11.8787 14.5084 11.8844 14.4241 11.8956C14.4083 11.8978 14.3927 11.8987 14.3772 11.8987Z" fill="#1EA4E9"/>
</g>
<defs>
<clipPath id="clip0">
<rect width="24" height="24" fill="white"/>
</clipPath>
</defs>
</svg>
