<svg width="20" height="20" viewBox="0 0 20 20" fill="none" xmlns="http://www.w3.org/2000/svg">
<g clip-path="url(#clip0)">
<path d="M16.9871 12.7461V17.3148H3.01214V12.7461H0.326172V18.6578C0.326172 19.399 0.926612 20.0001 1.67116 20.0001H18.328C19.0719 20.0001 19.673 19.3996 19.673 18.6578V12.7461H16.9871Z" fill="black"/>
<path d="M9.75361 12.293L5.90812 7.64627C5.90812 7.64627 5.32302 7.09387 5.95749 7.09387C6.59195 7.09387 8.12441 7.09387 8.12441 7.09387C8.12441 7.09387 8.12441 6.72226 8.12441 6.14918C8.12441 4.51531 8.12441 1.5418 8.12441 0.329575C8.12441 0.329575 8.03835 0 8.53471 0C9.03508 0 11.2267 0 11.5849 0C11.9425 0 11.9345 0.277537 11.9345 0.277537C11.9345 1.45307 11.9345 4.52932 11.9345 6.10981C11.9345 6.62219 11.9345 6.95443 11.9345 6.95443C11.9345 6.95443 13.1634 6.95443 13.9347 6.95443C14.7046 6.95443 14.1248 7.53286 14.1248 7.53286C14.1248 7.53286 10.8531 11.876 10.3967 12.3317C10.0685 12.662 9.75361 12.293 9.75361 12.293Z" fill="black"/>
</g>
<defs>
<clipPath id="clip0">
<rect width="20" height="20" fill="white"/>
</clipPath>
</defs>
</svg>
