<svg width="20" height="20" viewBox="0 0 20 20" fill="none" xmlns="http://www.w3.org/2000/svg">
<path d="M2.08329 4.99942H0.416673C0.246598 4.99942 0.0932017 5.10278 0.0301167 5.26067C0.00976547 5.3111 0 5.36399 0 5.41606C0 5.52754 0.0447649 5.6366 0.128592 5.71715L9.71176 14.8837C9.87289 15.0375 10.1268 15.0375 10.2879 14.8837L19.8711 5.71715C19.994 5.59914 20.0339 5.41848 19.9696 5.26059C19.9065 5.1027 19.7531 4.99935 19.583 4.99935H17.9164C17.8098 4.99935 17.7072 5.04005 17.6299 5.11329L9.99984 12.3422L2.36977 5.11333C2.29246 5.04009 2.18993 4.99942 2.08329 4.99942Z" fill="white"/>
</svg>
