<svg width="191" height="191" viewBox="0 0 191 191" fill="none" xmlns="http://www.w3.org/2000/svg">
<path d="M191 95.5C191 148.243 148.5 88 95.5 191C42.7568 191 0 148.243 0 95.5C0 42.7568 42.7568 0 95.5 0C148.243 0 191 42.7568 191 95.5Z" fill="#4D7CF2"/>
<g clip-path="url(#clip0)">
<path d="M125.5 82.5449H116.068V87.3743H125.5V82.5449Z" fill="white"/>
<path d="M64.9353 82.5449H55.5V87.3743H64.9353V82.5449Z" fill="white"/>
<path d="M115.926 78.3598C115.926 72.0045 111.67 67.7119 106.443 67.7119H74.5589C69.33 67.7119 65.0761 72.0028 65.0761 78.3598V88.9092H60.2168V102.076H68.7756V102.341H113.979V102.076H120.782V88.9092H115.922V78.3598H115.926V78.3598ZM68.6665 98.8954H63.5115V93.7404H68.6665V98.8954ZM72.5807 99.0045C71.0442 99.0045 69.8017 97.7584 69.8017 96.2255C69.8017 94.689 71.0442 93.4412 72.5807 93.4412C74.1137 93.4412 75.3615 94.689 75.3615 96.2255C75.3615 97.7584 74.1137 99.0045 72.5807 99.0045ZM84.6067 100.245H81.972V92.0525H84.6067V100.245ZM89.5804 100.245H86.9457V92.0525H89.5804V100.245ZM94.8481 100.245H92.2151V92.0525H94.8481V100.245ZM99.8236 100.245H97.1871V92.0525H99.8236V100.245ZM98.5036 88.9092C98.8098 86.9679 100.48 85.4772 102.502 85.4772C104.524 85.4772 106.196 86.9697 106.499 88.9092H98.5036ZM107.691 99.0045C106.158 99.0045 104.91 97.7584 104.91 96.2255C104.91 94.689 106.16 93.4412 107.691 93.4412C109.231 93.4412 110.471 94.689 110.471 96.2255C110.471 97.7584 109.231 99.0045 107.691 99.0045ZM111.536 88.9092H108.256C107.941 86.0123 105.482 83.7507 102.502 83.7507C99.5261 83.7507 97.0657 86.014 96.7489 88.9092H83.3659V82.5451H74.4093V88.9092H69.4638V78.3598C69.4638 74.4914 71.7975 72.0978 74.5589 72.0978H106.443C109.203 72.0978 111.536 74.4896 111.536 78.3598V88.9092ZM116.797 93.7404V98.8971H111.644V93.7404H116.797Z" fill="white"/>
<path d="M113.982 102.607L108.208 104.873H73.3882L68.8896 103.23V103.102H59.252V123.289H68.8896V117.136L73.1629 117.089V114.808H93.3693C94.2669 117.416 97.2783 119.341 100.867 119.341C104.459 119.341 107.467 117.416 108.366 114.808H109.591V117.001H113.324V123.289H122.536V103.102H113.981V102.607H113.982V102.607Z" fill="white"/>
</g>
<defs>
<clipPath id="clip0">
<rect width="70" height="70" fill="white" transform="translate(55.5 60.5)"/>
</clipPath>
</defs>
</svg>
