<svg xmlns="http://www.w3.org/2000/svg" width="60" height="60.031" viewBox="0 0 60 60.031">
  <g id="Page-1" transform="translate(0 -0.969)">
    <g id="_033---Mailbox-sync" data-name="033---Mailbox-sync">
      <path id="Shape" d="M43.23,27.01a3.982,3.982,0,0,1,2.97,1.53L58.16,43.92A4.014,4.014,0,0,1,59,46.37V56a4,4,0,0,1-4,4H5a4,4,0,0,1-4-4V46.37a4.014,4.014,0,0,1,.84-2.45L13.8,28.54a3.982,3.982,0,0,1,2.97-1.53Z" fill="#e8edfc"/>
      <path id="Shape-2" data-name="Shape" d="M58.16,43.92,46.2,28.54a3.982,3.982,0,0,0-2.97-1.53h-3a3.982,3.982,0,0,1,2.97,1.53L55.16,43.92A4.014,4.014,0,0,1,56,46.37V56a4,4,0,0,1-4,4h3a4,4,0,0,0,4-4V46.37A4.014,4.014,0,0,0,58.16,43.92Z" fill="#cad9fc"/>
      <path id="Shape-3" data-name="Shape" d="M55,47H42.24a2,2,0,0,0-1.79,1.11l-1.9,3.78A2,2,0,0,1,36.76,53H23.24a2,2,0,0,1-1.79-1.11l-1.9-3.78A2,2,0,0,0,17.76,47H5L17,31H43Z" fill="#cad9fc"/>
      <path id="Shape-4" data-name="Shape" d="M55,47H42.24a2,2,0,0,0-1.79,1.11l-1.9,3.78A2,2,0,0,1,36.76,53H23.24a2,2,0,0,1-1.79-1.11l-1.9-3.78A2,2,0,0,0,17.76,47H5L17,31H43Z" fill="#a4c2f7"/>
      <circle id="Oval" cx="16" cy="16" r="16" transform="translate(14 2)" fill="#e8edfc"/>
      <path id="Shape-5" data-name="Shape" d="M30,2c-.506,0-1.006.03-1.5.076a15.994,15.994,0,0,1,0,31.848c.494.046.994.076,1.5.076A16,16,0,0,0,30,2Z" fill="#cad9fc"/>
      <path id="Shape-6" data-name="Shape" d="M5,60H8a4,4,0,0,1-4-4V46.37a4.014,4.014,0,0,1,.84-2.45L16.8,28.54a3.982,3.982,0,0,1,2.981-1.53A16.023,16.023,0,0,1,31.5,2.074C31.008,2.03,30.51,2,30,2A16.018,16.018,0,0,0,16.781,27.01,3.982,3.982,0,0,0,13.8,28.54L1.84,43.92A4.014,4.014,0,0,0,1,46.37V56a4,4,0,0,0,4,4Z" fill="#fff"/>
      <path id="Rectangle-path" d="M.295,39.763h8v2H.3Z" transform="matrix(0.614, -0.789, 0.789, 0.614, -30.52, 19.129)" fill="#fff"/>
      <g id="Group_44" data-name="Group 44">
        <path id="Shape-7" data-name="Shape" d="M4.315,41.762a1,1,0,1,1-.01-2h.01a1,1,0,0,1,0,2Z" fill="#428dff"/>
        <path id="Shape-8" data-name="Shape" d="M46.988,27.923a4.99,4.99,0,0,0-2.182-1.6,17,17,0,1,0-29.612,0,4.99,4.99,0,0,0-2.182,1.6l-7.05,9.068A1,1,0,0,0,7.54,38.219l7.048-9.064a2.981,2.981,0,0,1,1.755-1.074A16.935,16.935,0,0,0,39.622,32H42.5L54.2,47.6a1,1,0,1,0,1.6-1.2l-12-16A1,1,0,0,0,43,30h-.971a17.052,17.052,0,0,0,1.628-1.919,2.974,2.974,0,0,1,1.754,1.073L57.368,44.531A3.025,3.025,0,0,1,58,46.37V56a3,3,0,0,1-3,3H5a3,3,0,0,1-3-3V46.37a3.025,3.025,0,0,1,.632-1.839,1,1,0,0,0-1.584-1.222A5.04,5.04,0,0,0,0,46.37V56a5.006,5.006,0,0,0,5,5H55a5.006,5.006,0,0,0,5-5V46.37a5.044,5.044,0,0,0-1.05-3.064ZM15,18A15,15,0,1,1,30,33,15,15,0,0,1,15,18Z" fill="#428dff"/>
        <path id="Shape-9" data-name="Shape" d="M16.76,31.32a1,1,0,0,0-1.4.2L4.2,46.4A1,1,0,0,0,5,48H17.764a.994.994,0,0,1,.894.553l1.9,3.789A2.983,2.983,0,0,0,23.236,54H36.764a2.983,2.983,0,0,0,2.683-1.658l1.9-3.789A.994.994,0,0,1,42.236,48H47a1,1,0,0,0,0-2H42.236a2.983,2.983,0,0,0-2.683,1.658l-1.9,3.789a.994.994,0,0,1-.894.553H23.236a.994.994,0,0,1-.894-.553l-1.9-3.789A2.983,2.983,0,0,0,17.764,46H7l9.96-13.28a1,1,0,0,0-.2-1.4Z" fill="#428dff"/>
        <path id="Shape-10" data-name="Shape" d="M39.947,13.1a1,1,0,0,0-1.342.448l-.665,1.331a9,9,0,0,0-15.354-2.646,1,1,0,0,0,1.536,1.281,7,7,0,0,1,12.161,2.754L33.947,15.1a1,1,0,1,0-.894,1.79l4,2a1,1,0,0,0,1.342-.448l2-4a1,1,0,0,0-.448-1.342Z" fill="#428dff"/>
        <path id="Shape-11" data-name="Shape" d="M35.878,22.481a7,7,0,0,1-12.161-2.754L26.053,20.9a1,1,0,0,0,.894-1.79l-4-2a1,1,0,0,0-1.342.448l-2,4a1,1,0,1,0,1.79.894l.665-1.331a9,9,0,0,0,15.354,2.646,1,1,0,0,0-1.536-1.281Z" fill="#428dff"/>
      </g>
    </g>
  </g>
</svg>
