<svg width="24" height="24" viewBox="0 0 24 24" fill="none" xmlns="http://www.w3.org/2000/svg">
<path d="M23.293 0.078125H13.6342C13.2438 0.078125 12.9272 0.394642 12.9272 0.785126V4.62401H1.01215C0.45314 4.62401 0 5.07715 0 5.63616V22.9103C0 23.4693 0.45314 23.9225 1.01215 23.9225H18.2863C18.8453 23.9225 19.2985 23.4693 19.2985 22.9103V11.1509H23.2929C23.6834 11.1509 23.9999 10.8344 23.9999 10.4439V0.785126C24 0.3947 23.6834 0.078125 23.293 0.078125ZM17.2741 21.8982H2.0243V6.64831H12.9271V10.4439C12.9271 10.8344 13.2437 11.1509 13.6342 11.1509H17.274V21.8982H17.2741ZM21.9807 9.13159H14.9465V2.09747H21.9807V9.13159Z" fill="#4F4F4F"/>
<path d="M10.0881 15.7585L15.6989 10.1479C15.3795 9.91589 15.0767 9.65811 14.7717 9.40979C14.4058 9.11185 14.0523 8.76631 13.8313 8.34375L8.25241 13.9227L7.16399 12.8342C7.05459 12.7249 6.89535 12.6823 6.74604 12.7223C6.59672 12.7622 6.48012 12.8789 6.44008 13.0283L4.97179 18.5094C4.9318 18.6587 4.97438 18.8181 5.08366 18.9274C5.16593 19.0096 5.27648 19.054 5.38973 19.054C5.427 19.054 5.46468 19.0491 5.5016 19.0392L10.9827 17.571C11.1321 17.5311 11.2487 17.4144 11.2888 17.2651C11.3288 17.1157 11.286 16.9564 11.1768 16.847L10.0881 15.7585Z" fill="#4F4F4F"/>
</svg>
