<svg width="24" height="24" viewBox="0 0 24 24" fill="none" xmlns="http://www.w3.org/2000/svg">
<g clip-path="url(#clip0)">
<path d="M21 0H3C1.3455 0 0 1.29492 0 2.88722V20.2105C0 21.8028 1.3455 23.0977 3 23.0977H12V15.1579H9V11.5489H12V8.66165C12 6.26959 14.0145 4.33083 16.5 4.33083H19.5V7.93985H18C17.172 7.93985 16.5 7.86478 16.5 8.66165V11.5489H20.25L18.75 15.1579H16.5V23.0977H21C22.6545 23.0977 24 21.8028 24 20.2105V2.88722C24 1.29492 22.6545 0 21 0Z" fill="black"/>
</g>
<defs>
<clipPath id="clip0">
<rect width="24" height="23.0977" fill="white"/>
</clipPath>
</defs>
</svg>
