<svg width="18" height="18" viewBox="0 0 18 18" fill="none" xmlns="http://www.w3.org/2000/svg">
<path d="M16.3822 4.58122V16.2685C16.3822 17.2232 15.6055 18 14.6508 18H6.75102C5.79631 18 5.01957 17.2232 5.01957 16.2685V8.66922C5.26655 8.7103 5.5185 8.73694 5.77707 8.73694C5.96044 8.73694 6.14041 8.72332 6.31817 8.70229V16.2685C6.31817 16.5072 6.5123 16.7014 6.75102 16.7014H14.6508C14.8894 16.7014 15.0836 16.5071 15.0836 16.2685V4.58122C15.0836 4.34249 14.8894 4.14836 14.6508 4.14836H10.3657C10.3657 3.69691 10.2979 3.2618 10.1763 2.8498H14.6508C15.6055 2.84976 16.3822 3.6265 16.3822 4.58122ZM5.70477 8.16724C3.45296 8.16724 1.62109 6.33538 1.62109 4.08367C1.62113 1.83186 3.45296 0 5.70477 0C7.95651 0 9.78844 1.83186 9.78844 4.08367C9.78844 6.33538 7.95651 8.16724 5.70477 8.16724ZM5.70477 7.3015C7.47903 7.3015 8.92263 5.85815 8.92263 4.08367C8.92263 2.3091 7.47924 0.865745 5.70477 0.865745C3.93022 0.865745 2.48684 2.3091 2.48684 4.08367C2.48684 5.85815 3.93044 7.3015 5.70477 7.3015ZM8.15389 4.51657C8.39283 4.51657 8.58675 4.32265 8.58675 4.08371C8.58675 3.84477 8.39283 3.65086 8.15389 3.65086H6.13762V1.95162C6.13762 1.71268 5.94371 1.51876 5.70477 1.51876C5.46583 1.51876 5.27191 1.71268 5.27191 1.95162V4.08371C5.27191 4.32265 5.46583 4.51657 5.70477 4.51657H8.15389ZM13.1499 8.02618H8.46056C8.22162 8.02618 8.0277 8.22009 8.0277 8.45903C8.0277 8.698 8.22162 8.89188 8.46056 8.89188H13.1499C13.3889 8.89188 13.5828 8.69797 13.5828 8.45903C13.5828 8.22009 13.3889 8.02618 13.1499 8.02618ZM13.1575 10.6519H8.46817C8.22924 10.6519 8.03532 10.8457 8.03532 11.0847C8.03532 11.3238 8.22924 11.5176 8.46817 11.5176H13.1575C13.3966 11.5176 13.5903 11.3238 13.5903 11.0847C13.5903 10.8457 13.3968 10.6519 13.1575 10.6519ZM13.1575 13.3862H8.46817C8.22924 13.3862 8.03532 13.5803 8.03532 13.8191C8.03532 14.0581 8.22924 14.2519 8.46817 14.2519H13.1575C13.3966 14.2519 13.5903 14.0581 13.5903 13.8191C13.5904 13.5802 13.3968 13.3862 13.1575 13.3862Z" fill="#2D9CDB"/>
</svg>
