<svg id="offroad" enable-background="new 0 0 300 300" height="512" viewBox="0 0 300 300" width="512" xmlns="http://www.w3.org/2000/svg"><path d="m54 138h16v16h-16z" fill="#0faa00"/><path d="m230 138h16v16h-16z" fill="#0faa00"/><path d="m254 106.072v-8.072h16c4.418 0 8-3.582 8-8s-3.582-8-8-8h-16v-32c0-4.418-3.582-8-8-8h-192c-4.418 0-8 3.582-8 8v32h-16c-4.418 0-8 3.582-8 8s3.582 8 8 8h16v8.072c-13.391.941-24 12.128-24 25.753v28.35c0 7.332 3.076 13.955 8 18.66v71.165c0 4.418 3.582 8 8 8h48c4.418 0 8-3.582 8-8v-18.584l33.541-13.416h44.919l33.54 13.416v18.584c0 4.418 3.582 8 8 8h48c4.418 0 8-3.582 8-8v-71.165c4.924-4.705 8-11.328 8-18.66v-28.35c0-13.626-10.609-24.813-24-25.753zm-192-48.072h176v48h-176zm-24 73.825c0-5.418 4.408-9.825 9.826-9.825h204.349c5.418 0 9.826 4.407 9.826 9.825v28.35c0 5.418-4.408 9.825-9.826 9.825h-70.175v-24c0-4.418-3.582-8-8-8s-8 3.582-8 8v24h-8v-24c0-4.418-3.582-8-8-8s-8 3.582-8 8v24h-8v-24c0-4.418-3.582-8-8-8s-8 3.582-8 8v24h-70.174c-5.418 0-9.826-4.407-9.826-9.825zm40 110.175h-32v-8h8c4.418 0 8-3.582 8-8s-3.582-8-8-8h-8v-8h8c4.418 0 8-3.582 8-8s-3.582-8-8-8h-8v-8h1.826 30.174v40zm98.971-39.428c-.945-.378-1.953-.572-2.971-.572h-48c-1.018 0-2.026.194-2.971.572l-29.029 11.612v-28.184h112v28.184zm77.029-16.572v56h-32v-8h8c4.418 0 8-3.582 8-8s-3.582-8-8-8h-8v-8h8c4.418 0 8-3.582 8-8s-3.582-8-8-8h-8v-8h30.174z"/></svg>