<svg width="141" height="45" viewBox="0 0 141 45" fill="none" xmlns="http://www.w3.org/2000/svg">
<path d="M122.56 22.3769C122.859 20.6075 121.654 18.9279 119.869 18.6255C118.083 18.323 116.393 19.5122 116.093 21.2816C115.794 23.051 116.998 24.7305 118.784 25.033C120.57 25.3354 122.26 24.1463 122.56 22.3769Z" fill="#04263F"/>
<path d="M130.078 2.65422C126.863 1.13453 123.278 0.574788 119.753 1.04211C116.228 1.50944 112.913 2.98399 110.205 5.28893C107.308 7.72645 105.202 10.9723 104.157 14.6123C103.927 15.4403 103.95 16.3184 104.224 17.1331C104.498 17.9477 105.009 18.6615 105.693 19.1821C106.377 19.7028 107.201 20.0063 108.059 20.0534C108.917 20.1005 109.769 19.8892 110.505 19.4466L116.374 15.9106C117.114 15.4645 117.935 15.169 118.789 15.0413C119.644 14.9135 120.515 14.9559 121.354 15.1661C122.192 15.3763 122.98 15.75 123.674 16.266C124.367 16.7819 124.951 17.4298 125.394 18.1724C125.839 18.9115 126.133 19.7312 126.261 20.5845C126.389 21.4377 126.348 22.3078 126.139 23.145C125.93 23.9821 125.558 24.7699 125.045 25.4631C124.531 26.1564 123.886 26.7415 123.146 27.185L110.792 34.6299C112.889 36.2378 115.302 37.385 117.872 37.9966C120.442 38.6082 123.113 38.6703 125.709 38.179C128.305 37.6877 130.769 36.654 132.938 35.1454C135.108 33.6368 136.935 31.6873 138.3 29.4243C139.665 27.1612 140.537 24.6355 140.859 22.0122C141.182 19.3889 140.948 16.727 140.172 14.2005C139.396 11.674 138.096 9.33963 136.356 7.35002C134.617 5.36042 132.478 3.7603 130.078 2.65422Z" fill="#04263F"/>
<path d="M20.9595 39H18.0786V27.6719C18.0786 26.7441 18.1356 25.6089 18.2495 24.2661H18.2007C18.0216 25.0311 17.863 25.5804 17.7246 25.9141L12.5 39H10.498L5.26123 26.0117C5.11475 25.6292 4.96012 25.0474 4.79736 24.2661H4.74854C4.81364 24.966 4.84619 26.1094 4.84619 27.6963V39H2.16064V21.4951H6.25L10.8521 33.1528C11.202 34.048 11.4299 34.7153 11.5356 35.1548H11.5967C11.8978 34.2352 12.1419 33.5516 12.3291 33.104L17.0166 21.4951H20.9595V39ZM30.5054 39.293C28.5767 39.293 27.0345 38.7111 25.8789 37.5474C24.7314 36.3755 24.1577 34.8252 24.1577 32.8965C24.1577 30.7969 24.7559 29.1571 25.9521 27.9771C27.1566 26.797 28.776 26.207 30.8105 26.207C32.7637 26.207 34.2855 26.7808 35.376 27.9282C36.4665 29.0757 37.0117 30.6667 37.0117 32.7012C37.0117 34.695 36.4217 36.2941 35.2417 37.4985C34.0698 38.6948 32.491 39.293 30.5054 39.293ZM30.6396 28.4653C29.5329 28.4653 28.658 28.8519 28.0151 29.625C27.3722 30.3981 27.0508 31.4642 27.0508 32.8232C27.0508 34.1335 27.3763 35.167 28.0273 35.9238C28.6784 36.6725 29.5492 37.0469 30.6396 37.0469C31.7546 37.0469 32.609 36.6766 33.2031 35.936C33.8053 35.1955 34.1064 34.1416 34.1064 32.7744C34.1064 31.3991 33.8053 30.3371 33.2031 29.5884C32.609 28.8397 31.7546 28.4653 30.6396 28.4653ZM42.7856 37.1934H42.7368V39H39.9048V20.4941H42.7368V28.6973H42.7856C43.7541 27.0371 45.1701 26.207 47.0337 26.207C48.6125 26.207 49.8454 26.7686 50.7324 27.8916C51.6276 29.0065 52.0752 30.5039 52.0752 32.3838C52.0752 34.4753 51.5747 36.1517 50.5737 37.4131C49.5728 38.6663 48.2056 39.293 46.4722 39.293C44.8446 39.293 43.6157 38.5931 42.7856 37.1934ZM42.7124 32.2251V33.7754C42.7124 34.6868 43.0013 35.46 43.5791 36.0947C44.165 36.7295 44.9056 37.0469 45.8008 37.0469C46.8506 37.0469 47.6725 36.64 48.2666 35.8262C48.8688 35.0042 49.1699 33.8608 49.1699 32.396C49.1699 31.1672 48.8892 30.2069 48.3276 29.5151C47.7743 28.8153 47.0215 28.4653 46.0693 28.4653C45.0602 28.4653 44.2464 28.8234 43.6279 29.5396C43.0176 30.2557 42.7124 31.1509 42.7124 32.2251ZM56.3965 23.8755C55.9326 23.8755 55.5339 23.7249 55.2002 23.4238C54.8747 23.1227 54.7119 22.7402 54.7119 22.2764C54.7119 21.8125 54.8747 21.4259 55.2002 21.1167C55.5339 20.8075 55.9326 20.6528 56.3965 20.6528C56.8766 20.6528 57.2835 20.8075 57.6172 21.1167C57.9508 21.4259 58.1177 21.8125 58.1177 22.2764C58.1177 22.7158 57.9508 23.0942 57.6172 23.4116C57.2835 23.7209 56.8766 23.8755 56.3965 23.8755ZM57.8003 39H54.9683V26.5H57.8003V39ZM68.7622 29.1978C68.4204 28.9292 67.9281 28.7949 67.2852 28.7949C66.4469 28.7949 65.7471 29.1733 65.1855 29.9302C64.624 30.687 64.3433 31.7165 64.3433 33.0186V39H61.5112V26.5H64.3433V29.0757H64.3921C64.6688 28.1968 65.092 27.5132 65.6616 27.0249C66.2394 26.5285 66.8823 26.2803 67.5903 26.2803C68.103 26.2803 68.4937 26.3576 68.7622 26.5122V29.1978ZM72.1924 23.8755C71.7285 23.8755 71.3298 23.7249 70.9961 23.4238C70.6706 23.1227 70.5078 22.7402 70.5078 22.2764C70.5078 21.8125 70.6706 21.4259 70.9961 21.1167C71.3298 20.8075 71.7285 20.6528 72.1924 20.6528C72.6725 20.6528 73.0794 20.8075 73.4131 21.1167C73.7467 21.4259 73.9136 21.8125 73.9136 22.2764C73.9136 22.7158 73.7467 23.0942 73.4131 23.4116C73.0794 23.7209 72.6725 23.8755 72.1924 23.8755ZM73.5962 39H70.7642V26.5H73.5962V39ZM88.6719 39H85.8398V36.876H85.791C84.8796 38.4873 83.4757 39.293 81.5796 39.293C80.0415 39.293 78.8086 38.7355 77.8809 37.6206C76.9613 36.4976 76.5015 34.9717 76.5015 33.043C76.5015 30.9759 77.0101 29.3198 78.0273 28.0747C79.0527 26.8296 80.4159 26.207 82.1167 26.207C83.8013 26.207 85.026 26.8825 85.791 28.2334H85.8398V20.4941H88.6719V39ZM85.8765 33.2871V31.6514C85.8765 30.7643 85.5876 30.0116 85.0098 29.3931C84.432 28.7746 83.6955 28.4653 82.8003 28.4653C81.7424 28.4653 80.9082 28.86 80.2979 29.6494C79.6956 30.4388 79.3945 31.5334 79.3945 32.9331C79.3945 34.2026 79.6834 35.2077 80.2612 35.9482C80.8472 36.6807 81.6325 37.0469 82.6172 37.0469C83.5856 37.0469 84.3709 36.6929 84.9731 35.9849C85.5754 35.2687 85.8765 34.3695 85.8765 33.2871ZM102.954 33.519H94.4336C94.4661 34.6746 94.8201 35.5658 95.4956 36.1924C96.1792 36.819 97.1151 37.1323 98.3032 37.1323C99.6379 37.1323 100.863 36.7336 101.978 35.936V38.2188C100.838 38.9349 99.3327 39.293 97.4609 39.293C95.6217 39.293 94.1772 38.7274 93.1274 37.5962C92.0858 36.4569 91.5649 34.8577 91.5649 32.7988C91.5649 30.8538 92.1387 29.271 93.2861 28.0503C94.4417 26.8215 95.874 26.207 97.583 26.207C99.292 26.207 100.614 26.7563 101.55 27.855C102.486 28.9536 102.954 30.4795 102.954 32.4326V33.519ZM100.22 31.5171C100.212 30.4998 99.9715 29.7104 99.4995 29.1489C99.0275 28.5793 98.3765 28.2944 97.5464 28.2944C96.7326 28.2944 96.0409 28.5915 95.4712 29.1855C94.9097 29.7796 94.5638 30.5568 94.4336 31.5171H100.22Z" fill="#04263F"/>
</svg>
