<svg width="18" height="18" viewBox="0 0 18 18" fill="none" xmlns="http://www.w3.org/2000/svg">
<g clip-path="url(#clip0)">
<path d="M0 4.44389V13.5559C0 14.8114 1.02427 15.8357 2.27983 15.8357H9.6443C10.8999 15.8357 11.9241 14.8114 11.9241 13.5559V12.08C11.9241 11.8304 11.7222 11.6285 11.4726 11.6285C11.2229 11.6285 11.021 11.8304 11.021 12.08V13.5559C11.021 14.3158 10.4006 14.9362 9.64063 14.9362H2.27983C1.51989 14.9362 0.899449 14.3158 0.899449 13.5559V4.44389C0.899449 3.68395 1.51989 3.06351 2.27983 3.06351H9.6443C10.4042 3.06351 11.0247 3.68395 11.0247 4.44389V5.91972C11.0247 6.16936 11.2266 6.37128 11.4762 6.37128C11.7259 6.37128 11.9278 6.16936 11.9278 5.91972V4.44389C11.9278 3.18833 10.9035 2.16406 9.64797 2.16406H2.27983C1.02427 2.16406 0 3.18466 0 4.44389Z" fill="#2D9CDB"/>
<path d="M14.1494 12.3963C14.2375 12.4845 14.3513 12.5285 14.4688 12.5285C14.5863 12.5285 14.7001 12.4845 14.7882 12.3963L17.8683 9.31619C18.0445 9.13997 18.0445 8.85729 17.8683 8.68107L14.7882 5.60091C14.612 5.4247 14.3293 5.4247 14.1531 5.60091C13.9768 5.77713 13.9768 6.05982 14.1531 6.23604L16.4659 8.54891H8.02578C7.77614 8.54891 7.57422 8.75082 7.57422 9.00047C7.57422 9.25011 7.77614 9.45203 8.02578 9.45203H16.4622L14.1494 11.7649C13.9732 11.9374 13.9732 12.2238 14.1494 12.3963Z" fill="#2D9CDB"/>
</g>
<defs>
<clipPath id="clip0">
<rect width="18" height="18" fill="white"/>
</clipPath>
</defs>
</svg>
