<svg width="85" height="28" viewBox="0 0 85 28" fill="none" xmlns="http://www.w3.org/2000/svg">
<path d="M75.5308 11.0384C75.6846 10.1298 75.0659 9.26728 74.1489 9.11196C73.2319 8.95665 72.3639 9.56731 72.2101 10.4759C72.0563 11.3845 72.675 12.247 73.592 12.4023C74.509 12.5576 75.377 11.947 75.5308 11.0384Z" fill="black"/>
<path d="M79.3914 0.910142C77.7405 0.129764 75.8996 -0.157673 74.0896 0.082304C72.2795 0.322281 70.577 1.07948 69.1864 2.2631C67.6986 3.5148 66.6174 5.18161 66.0808 7.05077C65.9625 7.47596 65.9744 7.92687 66.115 8.34522C66.2555 8.76357 66.5184 9.13011 66.8694 9.39745C67.2205 9.66479 67.6436 9.82065 68.0842 9.84486C68.5247 9.86907 68.9624 9.76052 69.3406 9.53326L72.3541 7.71749C72.7341 7.48839 73.1557 7.33667 73.5946 7.27106C74.0334 7.20544 74.4809 7.22722 74.9113 7.33515C75.3417 7.44308 75.7466 7.63503 76.1026 7.89996C76.4586 8.1649 76.7588 8.4976 76.9859 8.87895V8.87895C77.2144 9.25849 77.3658 9.6794 77.4315 10.1176C77.4972 10.5557 77.4758 11.0025 77.3686 11.4324C77.2614 11.8623 77.0705 12.2668 76.8068 12.6228C76.5432 12.9788 76.2119 13.2793 75.8319 13.507L69.4877 17.3301C70.5646 18.1558 71.8035 18.7449 73.1235 19.0589C74.4434 19.373 75.8148 19.4049 77.148 19.1526C78.4811 18.9003 79.7461 18.3695 80.8602 17.5948C81.9742 16.8201 82.9124 15.819 83.6133 14.6569C84.3142 13.4948 84.7622 12.1978 84.9278 10.8507C85.0935 9.50362 84.9732 8.13671 84.5747 6.83931C84.1762 5.5419 83.5086 4.34319 82.6154 3.3215C81.7223 2.29981 80.6236 1.47813 79.3914 0.910142V0.910142Z" fill="black"/>
<path d="M13.4141 24H11.5703V16.75C11.5703 16.1562 11.6068 15.4297 11.6797 14.5703H11.6484C11.5339 15.0599 11.4323 15.4115 11.3438 15.625L8 24H6.71875L3.36719 15.6875C3.27344 15.4427 3.17448 15.0703 3.07031 14.5703H3.03906C3.08073 15.0182 3.10156 15.75 3.10156 16.7656V24H1.38281V12.7969H4L6.94531 20.2578C7.16927 20.8307 7.3151 21.2578 7.38281 21.5391H7.42188C7.61458 20.9505 7.77083 20.513 7.89062 20.2266L10.8906 12.7969H13.4141V24ZM19.5234 24.1875C18.2891 24.1875 17.3021 23.8151 16.5625 23.0703C15.8281 22.3203 15.4609 21.3281 15.4609 20.0938C15.4609 18.75 15.8438 17.7005 16.6094 16.9453C17.3802 16.1901 18.4167 15.8125 19.7188 15.8125C20.9688 15.8125 21.9427 16.1797 22.6406 16.9141C23.3385 17.6484 23.6875 18.6667 23.6875 19.9688C23.6875 21.2448 23.3099 22.2682 22.5547 23.0391C21.8047 23.8047 20.7943 24.1875 19.5234 24.1875ZM19.6094 17.2578C18.901 17.2578 18.3411 17.5052 17.9297 18C17.5182 18.4948 17.3125 19.1771 17.3125 20.0469C17.3125 20.8854 17.5208 21.5469 17.9375 22.0312C18.3542 22.5104 18.9115 22.75 19.6094 22.75C20.3229 22.75 20.8698 22.513 21.25 22.0391C21.6354 21.5651 21.8281 20.8906 21.8281 20.0156C21.8281 19.1354 21.6354 18.4557 21.25 17.9766C20.8698 17.4974 20.3229 17.2578 19.6094 17.2578ZM27.3828 22.8438H27.3516V24H25.5391V12.1562H27.3516V17.4062H27.3828C28.0026 16.3438 28.9089 15.8125 30.1016 15.8125C31.112 15.8125 31.901 16.1719 32.4688 16.8906C33.0417 17.6042 33.3281 18.5625 33.3281 19.7656C33.3281 21.1042 33.0078 22.1771 32.3672 22.9844C31.7266 23.7865 30.8516 24.1875 29.7422 24.1875C28.7005 24.1875 27.9141 23.7396 27.3828 22.8438ZM27.3359 19.6641V20.6562C27.3359 21.2396 27.5208 21.7344 27.8906 22.1406C28.2656 22.5469 28.7396 22.75 29.3125 22.75C29.9844 22.75 30.5104 22.4896 30.8906 21.9688C31.276 21.4427 31.4688 20.7109 31.4688 19.7734C31.4688 18.987 31.2891 18.3724 30.9297 17.9297C30.5755 17.4818 30.0938 17.2578 29.4844 17.2578C28.8385 17.2578 28.3177 17.487 27.9219 17.9453C27.5312 18.4036 27.3359 18.9766 27.3359 19.6641ZM36.0938 14.3203C35.7969 14.3203 35.5417 14.224 35.3281 14.0312C35.1198 13.8385 35.0156 13.5938 35.0156 13.2969C35.0156 13 35.1198 12.7526 35.3281 12.5547C35.5417 12.3568 35.7969 12.2578 36.0938 12.2578C36.401 12.2578 36.6615 12.3568 36.875 12.5547C37.0885 12.7526 37.1953 13 37.1953 13.2969C37.1953 13.5781 37.0885 13.8203 36.875 14.0234C36.6615 14.2214 36.401 14.3203 36.0938 14.3203ZM36.9922 24H35.1797V16H36.9922V24ZM44.0078 17.7266C43.7891 17.5547 43.474 17.4688 43.0625 17.4688C42.526 17.4688 42.0781 17.7109 41.7188 18.1953C41.3594 18.6797 41.1797 19.3385 41.1797 20.1719V24H39.3672V16H41.1797V17.6484H41.2109C41.388 17.0859 41.6589 16.6484 42.0234 16.3359C42.3932 16.0182 42.8047 15.8594 43.2578 15.8594C43.5859 15.8594 43.8359 15.9089 44.0078 16.0078V17.7266ZM46.2031 14.3203C45.9062 14.3203 45.651 14.224 45.4375 14.0312C45.2292 13.8385 45.125 13.5938 45.125 13.2969C45.125 13 45.2292 12.7526 45.4375 12.5547C45.651 12.3568 45.9062 12.2578 46.2031 12.2578C46.5104 12.2578 46.7708 12.3568 46.9844 12.5547C47.1979 12.7526 47.3047 13 47.3047 13.2969C47.3047 13.5781 47.1979 13.8203 46.9844 14.0234C46.7708 14.2214 46.5104 14.3203 46.2031 14.3203ZM47.1016 24H45.2891V16H47.1016V24ZM56.75 24H54.9375V22.6406H54.9062C54.3229 23.6719 53.4245 24.1875 52.2109 24.1875C51.2266 24.1875 50.4375 23.8307 49.8438 23.1172C49.2552 22.3984 48.9609 21.4219 48.9609 20.1875C48.9609 18.8646 49.2865 17.8047 49.9375 17.0078C50.5938 16.2109 51.4661 15.8125 52.5547 15.8125C53.6328 15.8125 54.4167 16.2448 54.9062 17.1094H54.9375V12.1562H56.75V24ZM54.9609 20.3438V19.2969C54.9609 18.7292 54.776 18.2474 54.4062 17.8516C54.0365 17.4557 53.5651 17.2578 52.9922 17.2578C52.3151 17.2578 51.7812 17.5104 51.3906 18.0156C51.0052 18.5208 50.8125 19.2214 50.8125 20.1172C50.8125 20.9297 50.9974 21.5729 51.3672 22.0469C51.7422 22.5156 52.2448 22.75 52.875 22.75C53.4948 22.75 53.9974 22.5234 54.3828 22.0703C54.7682 21.612 54.9609 21.0365 54.9609 20.3438ZM65.8906 20.4922H60.4375C60.4583 21.2318 60.6849 21.8021 61.1172 22.2031C61.5547 22.6042 62.1536 22.8047 62.9141 22.8047C63.7682 22.8047 64.5521 22.5495 65.2656 22.0391V23.5C64.5365 23.9583 63.5729 24.1875 62.375 24.1875C61.1979 24.1875 60.2734 23.8255 59.6016 23.1016C58.9349 22.3724 58.6016 21.349 58.6016 20.0312C58.6016 18.7865 58.9688 17.7734 59.7031 16.9922C60.4427 16.2057 61.3594 15.8125 62.4531 15.8125C63.5469 15.8125 64.3932 16.1641 64.9922 16.8672C65.5911 17.5703 65.8906 18.5469 65.8906 19.7969V20.4922ZM64.1406 19.2109C64.1354 18.5599 63.9818 18.0547 63.6797 17.6953C63.3776 17.3307 62.9609 17.1484 62.4297 17.1484C61.9089 17.1484 61.4661 17.3385 61.1016 17.7188C60.7422 18.099 60.5208 18.5964 60.4375 19.2109H64.1406Z" fill="black"/>
</svg>
