<svg width="18" height="18" viewBox="0 0 18 18" fill="none" xmlns="http://www.w3.org/2000/svg">
<path d="M15.8636 2.16406H2.13645C0.958419 2.16406 0 3.08447 0 4.21576V13.7838C0 14.9151 0.958419 15.8355 2.13645 15.8355H15.8636C17.0416 15.8355 18 14.9151 18 13.7838V4.21576C18 3.08447 17.0416 2.16406 15.8636 2.16406ZM15.8636 14.0242H2.13645C1.96328 14.0242 1.81141 13.9119 1.81141 13.7838V5.48098L8.01984 10.7225C8.14712 10.83 8.30898 10.8891 8.47564 10.8891L9.52417 10.8892C9.69074 10.8892 9.85269 10.83 9.98002 10.7225L16.1887 5.4808V13.7839C16.1886 13.9119 16.0367 14.0242 15.8636 14.0242ZM9.00002 9.09062L2.96155 3.97538H15.0385L9.00002 9.09062Z" fill="#2D9CDB" fill-opacity="0.6"/>
</svg>
