<svg width="12" height="14" viewBox="0 0 12 14" fill="none" xmlns="http://www.w3.org/2000/svg">
<path d="M10.5007 0H3.50065C2.85723 0 2.33398 0.597355 2.33398 1.3319V9.32327C2.33398 10.0578 2.85723 10.6552 3.50065 10.6552H10.5007C11.1441 10.6552 11.6673 10.0578 11.6673 9.32327V1.3319C11.6673 0.597355 11.1441 0 10.5007 0ZM3.50065 9.32327V1.3319H10.5007L10.5018 9.32327H3.50065Z" fill="#0F0F0F"/>
<path d="M1.16667 3.99483H0V11.9862C0 12.7207 0.52325 13.3181 1.16667 13.3181H8.16667V11.9862H1.16667V3.99483ZM6.37758 6.3383L5.37075 5.18887L4.54592 6.13052L6.45575 8.31084L9.78191 3.75575L8.88475 2.90201L6.37758 6.3383Z" fill="#0F0F0F"/>
</svg>
