<svg xmlns="http://www.w3.org/2000/svg" width="11.648" height="11.648" viewBox="0 0 11.648 11.648">
  <g id="nearby" transform="translate(0 -0.001)">
    <path id="Path_93" data-name="Path 93" d="M5.824,0a5.824,5.824,0,1,0,5.824,5.824A5.831,5.831,0,0,0,5.824,0Zm0,10.813a4.989,4.989,0,1,1,4.989-4.989A4.995,4.995,0,0,1,5.824,10.814Z"/>
    <path id="Path_94" data-name="Path 94" d="M61.6,46.612a2.54,2.54,0,0,0-2.537,2.537A5.166,5.166,0,0,0,61.368,53a.417.417,0,0,0,.457,0,5.166,5.166,0,0,0,2.309-3.854A2.54,2.54,0,0,0,61.6,46.612Zm0,5.523a4.14,4.14,0,0,1-1.7-2.986,1.7,1.7,0,1,1,3.4,0A4.16,4.16,0,0,1,61.6,52.135Z" transform="translate(-55.772 -44.017)"/>
  </g>
</svg>
