<svg xmlns="http://www.w3.org/2000/svg" width="12.367" height="12.246" viewBox="0 0 12.367 12.246">
  <g id="XMLID_1571_" transform="translate(0 -0.301)">
    <g id="XMLID_553_" transform="translate(0 0.301)">
      <path id="XMLID_644_" d="M11.32,15.011l-.048-.162h.371a.725.725,0,1,0,0-1.449h-.8l-.393-1.312a1.5,1.5,0,0,0-1.45-1.079H7.814a.242.242,0,1,0,0,.483H8.994a1.024,1.024,0,0,1,.987.735l.786,2.623H9.844v-.411a1.137,1.137,0,0,0-.9-1.111.912.912,0,1,0-1.582,0,1.137,1.137,0,0,0-.9,1.111v.411H5.9v-.411A1.137,1.137,0,0,0,5,13.328a.912.912,0,1,0-1.582,0,1.137,1.137,0,0,0-.9,1.111v.411H1.6l.786-2.623a1.024,1.024,0,0,1,.987-.735H5.881a.242.242,0,0,0,0-.483H3.372a1.5,1.5,0,0,0-1.45,1.079L1.529,13.4h-.8a.725.725,0,0,0,0,1.449H1.1l-.048.162A1.789,1.789,0,0,0,0,16.637v1.885a1.087,1.087,0,0,0,1.086,1.086H1.4v.732a.766.766,0,0,0,.765.765h.5a.766.766,0,0,0,.765-.765v-.732h.82a.242.242,0,0,0,0-.483H1.086a.6.6,0,0,1-.6-.6V16.637a1.306,1.306,0,0,1,1.3-1.3H10.58a1.306,1.306,0,0,1,1.3,1.3v1.885a.6.6,0,0,1-.6.6H6.186a.242.242,0,0,0,0,.483H8.936v.732a.766.766,0,0,0,.765.765h.5a.766.766,0,0,0,.765-.765v-.732h.316a1.087,1.087,0,0,0,1.086-1.086V16.637A1.789,1.789,0,0,0,11.32,15.011Zm-8.372,4.6v.732a.283.283,0,0,1-.282.282h-.5a.283.283,0,0,1-.282-.282v-.732Zm8.694-5.725a.242.242,0,1,1,0,.483h-.515l-.145-.483ZM8.153,12.445a.429.429,0,1,1-.429.429A.43.43,0,0,1,8.153,12.445ZM6.945,14.439a.653.653,0,0,1,.652-.652H8.708a.653.653,0,0,1,.652.652v.411H6.945ZM4.214,12.445a.429.429,0,1,1-.429.429A.43.43,0,0,1,4.214,12.445ZM3.006,14.439a.653.653,0,0,1,.652-.652H4.769a.653.653,0,0,1,.652.652v.411H3.006v-.411ZM.725,14.366a.242.242,0,1,1,0-.483h.66l-.145.483Zm9.757,5.973a.283.283,0,0,1-.282.282H9.7a.283.283,0,0,1-.282-.282v-.732h1.063v.732Z" transform="translate(0 -8.859)"/>
      <path id="XMLID_652_" d="M25.027,51.437a.241.241,0,1,0,.171.071A.243.243,0,0,0,25.027,51.437Z" transform="translate(-19.809 -41.172)"/>
      <path id="XMLID_653_" d="M33.148,11.492a.242.242,0,1,0-.171-.071A.243.243,0,0,0,33.148,11.492Z" transform="translate(-26.3 -8.859)"/>
      <path id="XMLID_656_" d="M24.32,38.325v-.52a.659.659,0,0,0-.658-.658H20.63a.659.659,0,0,0-.658.658v.52a.659.659,0,0,0,.658.658h3.032A.659.659,0,0,0,24.32,38.325Zm-.483-.52v.52a.175.175,0,0,1-.175.175h-.308v-.87h.308A.175.175,0,0,1,23.837,37.805Zm-1.449-.175h.483v.87h-.483Zm-.483.87h-.483v-.87H21.9Zm-1.449-.175v-.52a.175.175,0,0,1,.175-.175h.308v.87H20.63A.175.175,0,0,1,20.455,38.325Z" transform="translate(-15.963 -29.75)"/>
      <path id="XMLID_662_" d="M5.781,37.1A1.159,1.159,0,1,0,6.94,35.944,1.161,1.161,0,0,0,5.781,37.1Zm1.836,0a.676.676,0,1,1-.676-.676A.677.677,0,0,1,7.617,37.1Z" transform="translate(-4.62 -28.789)"/>
      <path id="XMLID_665_" d="M45.43,38.263A1.159,1.159,0,1,0,44.27,37.1,1.161,1.161,0,0,0,45.43,38.263Zm0-1.836a.676.676,0,1,1-.676.676A.677.677,0,0,1,45.43,36.427Z" transform="translate(-35.383 -28.789)"/>
      <path id="XMLID_938_" d="M35.589,1.967h4.369a.242.242,0,0,0,.242-.242A1.425,1.425,0,0,0,37.651.849a.949.949,0,0,0-1.281.636h-.78a.242.242,0,1,0,0,.483Zm1.7-.708a.461.461,0,0,1,.29.1.242.242,0,0,0,.364-.076.942.942,0,0,1,1.743.2h-2.8A.467.467,0,0,1,37.288,1.259Z" transform="translate(-28.252 -0.301)"/>
      <path id="XMLID_953_" d="M4.843,1.967H9.211a.242.242,0,0,0,.242-.242A1.425,1.425,0,0,0,6.9.849a.949.949,0,0,0-1.281.636h-.78a.242.242,0,1,0,0,.483Zm1.7-.708a.461.461,0,0,1,.29.1A.242.242,0,0,0,7.2,1.285a.942.942,0,0,1,1.743.2h-2.8A.467.467,0,0,1,6.541,1.259Z" transform="translate(-3.677 -0.301)"/>
    </g>
  </g>
</svg>
