<svg xmlns="http://www.w3.org/2000/svg" width="11.982" height="11.957" viewBox="0 0 11.982 11.957">
  <g id="pie-chart" transform="translate(-30.281 -19.125)">
    <path id="Path_95" data-name="Path 95" d="M66.28,19.125a.311.311,0,0,0-.311.311v5.019a.311.311,0,0,0,.311.311H71.3a.311.311,0,0,0,.311-.311A5.336,5.336,0,0,0,66.28,19.125Zm.311,5.019V19.757a4.715,4.715,0,0,1,4.387,4.387Z" transform="translate(-29.347)"/>
    <path id="Path_96" data-name="Path 96" d="M35.611,37.083a5.336,5.336,0,0,0,5.33-5.33.311.311,0,0,0-.311-.311H35.922V26.733a.311.311,0,0,0-.311-.311,5.33,5.33,0,1,0,0,10.661ZM35.3,27.054v4.7a.311.311,0,0,0,.311.311h4.7A4.708,4.708,0,1,1,35.3,27.054Z" transform="translate(0 -6)"/>
  </g>
</svg>
