<svg id="pilot" enable-background="new 0 0 300 300" height="512" viewBox="0 0 300 300" width="512" xmlns="http://www.w3.org/2000/svg"><path d="m145.763 51.361-5.747 15.762-19.45 2.635c-2.625.046-3.659 3.318-1.509 4.775l13.595 10.857-3.34 18.012c-.769 2.432 2.124 4.392 4.222 2.86l15.56-12.077 15.975 11.523c2.15 1.457 4.972-.604 4.119-3.007l-3.971-17.884 13.205-11.328c2.098-1.531.949-4.765-1.676-4.719l-19.53-1.95-6.298-15.55c-.854-2.403-4.386-2.341-5.155.091z" fill="#0faa00"/><path d="m262 162h-24v-8h16c2.571 0 4.986-1.236 6.49-3.322 1.503-2.086 1.912-4.768 1.1-7.208l-7.59-22.768v-37.298c0-31.653-25.751-57.404-57.404-57.404h-93.191c-31.654 0-57.405 25.751-57.405 57.404v37.298l-7.589 22.768c-.813 2.44-.404 5.122 1.1 7.208 1.503 2.086 3.917 3.322 6.489 3.322h16v8h-24c-4.418 0-8 3.582-8 8v32c0 10.3 6.523 19.104 15.655 22.501.227 6.33 1.927 15.327 8.587 23.091 8.303 9.679 21.666 14.603 39.758 14.682v3.726c0 4.418 3.582 8 8 8h96c4.418 0 8-3.582 8-8v-3.734c17.967-.15 31.24-5.113 39.471-14.801 6.521-7.677 8.227-16.534 8.473-22.822 9.34-3.287 16.056-12.193 16.056-22.643v-32c0-4.418-3.582-8-8-8zm-40 8.377c0 13.025-10.598 23.623-23.623 23.623h-16.377c-4.411 0-8-3.589-8-8 0-4.418-3.582-8-8-8h-32c-4.418 0-8 3.582-8 8 0 4.411-3.589 8-8 8h-16.377c-4.996 0-9.631-1.563-13.451-4.22.601.141 1.214.22 1.828.22 2.047 0 4.095-.781 5.657-2.343l44-44c3.124-3.125 3.124-8.189 0-11.314-3.125-3.123-8.189-3.123-11.314 0l-44 44c-2.031 2.031-2.733 4.88-2.124 7.485-2.657-3.82-4.22-8.456-4.22-13.451v-.377-15.997c.001 2.047.782 4.093 2.343 5.655 1.563 1.561 3.611 2.342 5.658 2.342s4.095-.781 5.657-2.343l16-16c3.124-3.125 3.124-8.189 0-11.314-3.125-3.123-8.189-3.123-11.314 0l-16 16c-1.562 1.562-2.343 3.608-2.343 5.655v-23.998h144v40zm-164.9-32.377 4.49-13.47c.271-.816.41-1.67.41-2.53v-38.596c0-22.83 18.574-41.404 41.404-41.404h93.191c22.831 0 41.405 18.574 41.405 41.404v38.596c0 .86.139 1.714.41 2.53l4.49 13.47h-4.9v-16c0-4.418-3.582-8-8-8h-160c-4.418 0-8 3.582-8 8v16zm-11.1 40h16v24c0 4.411-3.589 8-8 8s-8-3.589-8-8zm144 80h-80v-8h80zm16-11.737v-4.263c0-4.418-3.582-8-8-8h-96c-4.418 0-8 3.582-8 8v4.269c-12.962-.077-22.427-3.146-27.518-8.982-3.513-4.03-4.574-8.919-4.811-12.551 9.432-3.192 16.253-12.092 16.324-22.571 6.602 4.92 14.78 7.836 23.627 7.836h16.378c10.43 0 19.327-6.688 22.629-16h18.742c3.302 9.312 12.199 16 22.629 16h16.377c8.847 0 17.026-2.916 23.627-7.836.07 10.343 6.715 19.15 15.957 22.446-.212 3.571-1.229 8.428-4.684 12.496-5.003 5.889-14.391 9.015-27.277 9.156zm48-44.263c0 4.411-3.589 8-8 8s-8-3.589-8-8v-24h16z"/></svg>