<svg width="24" height="24" viewBox="0 0 24 24" fill="none" xmlns="http://www.w3.org/2000/svg">
<path d="M3.5104 20.4896C-1.17013 15.8091 -1.17013 8.19094 3.5104 3.5104C8.19094 -1.17013 15.8091 -1.17013 20.4896 3.5104C25.1701 8.19094 25.1701 15.8091 20.4896 20.4896C15.8091 25.1701 8.19094 25.1701 3.5104 20.4896ZM19.6426 4.3574C15.4272 0.141983 8.57283 0.141983 4.35741 4.3574C0.141983 8.57283 0.141983 15.4272 4.35741 19.6426C8.57283 23.858 15.4272 23.858 19.6426 19.6426C23.858 15.4272 23.8531 8.57283 19.6426 4.3574Z" fill="#6C63FF"/>
<path d="M12.0006 16.4949C11.8341 16.4949 11.6873 16.4264 11.5747 16.3187C11.4669 16.2109 11.3984 16.0592 11.3984 15.8927V12.5977H8.10342C7.93695 12.5977 7.79008 12.5292 7.67747 12.4215C7.56976 12.3138 7.50121 12.162 7.50121 11.9955C7.50121 11.6626 7.77049 11.3933 8.09852 11.3982H11.3935V8.10323C11.3935 7.77031 11.6628 7.50103 11.9908 7.50593C12.3237 7.50593 12.593 7.7752 12.5881 8.10323V11.3982H15.8831C16.216 11.3982 16.4853 11.6675 16.4804 11.9955C16.4804 12.3284 16.2111 12.5977 15.8831 12.5928H12.5881V15.8878C12.6028 16.2256 12.3335 16.4949 12.0006 16.4949Z" fill="#6C63FF"/>
</svg>
