<svg width="191" height="191" viewBox="0 0 191 191" fill="none" xmlns="http://www.w3.org/2000/svg">
<path d="M191 95.5C191 148.243 148.5 88 95.5 191C42.7568 191 0 148.243 0 95.5C0 42.7568 42.7568 0 95.5 0C148.243 0 191 42.7568 191 95.5Z" fill="#69F0AE"/>
<g clip-path="url(#clip0)">
<path d="M120.226 88.2521L109.808 87.6208C109.624 87.0324 109.428 86.4451 109.205 85.8729L111.245 84.2489L107.691 78.094L105.262 79.0499C105.002 78.7275 104.732 78.4079 104.45 78.0901L105.815 75.8586L100.371 71.2899L98.4118 73.021C98.0554 72.8041 97.6924 72.5938 97.3248 72.3919L97.8441 69.8309L91.1638 67.4004L89.9162 69.6965C89.5051 69.6139 89.0919 69.5409 88.6792 69.479L88.2921 66.8945H81.1841L80.7959 69.4806C80.3837 69.542 79.9699 69.6151 79.5589 69.6976L78.3118 67.4015L71.631 69.832L72.1508 72.393C71.7827 72.5949 71.4185 72.8041 71.0633 73.0221L69.1046 71.291L63.6596 75.8598L65.0255 78.0912C64.7433 78.4091 64.4728 78.7297 64.2134 79.051L61.784 78.0951L58.2309 84.25L60.2704 85.874C60.1176 86.265 59.9737 86.6604 59.8399 87.0586L57.2348 86.9911L56 93.991L58.4774 94.8209C58.4718 95.0289 58.4684 95.2392 58.4684 95.4494C58.4684 95.6597 58.4718 95.8699 58.4774 96.0774L56 96.9078L57.2348 103.907L59.8421 103.84C59.9759 104.238 60.1198 104.634 60.2732 105.024L58.2331 106.649L61.7863 112.804L64.2157 111.848C64.475 112.17 64.746 112.49 65.0277 112.807L63.6619 115.039L69.1068 119.608L71.0655 117.876C71.4219 118.093 71.7849 118.303 72.153 118.506L71.6332 121.066L78.3141 123.497L79.5611 121.201C79.9722 121.284 80.386 121.357 80.7981 121.418L81.1852 124.004H88.2932L88.6814 121.418C89.0941 121.357 89.5074 121.284 89.9184 121.201L91.166 123.497L97.8468 121.066L97.3271 118.506C97.6946 118.303 98.0593 118.095 98.414 117.876L100.373 119.608L105.818 115.039L104.452 112.807C104.734 112.49 105.005 112.169 105.264 111.848L107.693 112.804L111.247 106.649L109.207 105.024C109.431 104.452 109.626 103.865 109.81 103.277L120.228 102.645C124.025 102.416 127 99.2541 127 95.4494C127 91.6447 124.025 88.483 120.226 88.2521V88.2521ZM108.282 107.21L106.695 109.958L104.49 109.089L103.968 109.787C103.442 110.491 102.846 111.197 102.195 111.887L101.596 112.522L102.839 114.553L100.408 116.591L98.6265 115.017L97.897 115.497C97.1419 115.994 96.3421 116.457 95.519 116.872L94.7398 117.265L95.2128 119.592L92.2318 120.677L91.0985 118.59L90.2486 118.79C89.3568 119 88.4466 119.16 87.5453 119.265L86.677 119.366L86.3251 121.72H83.1533L82.7992 119.367L81.9314 119.267C81.0301 119.161 80.12 119.002 79.2265 118.791L78.3777 118.591L77.2449 120.678L74.264 119.593L74.7364 117.267L73.9578 116.873C73.134 116.458 72.3343 115.995 71.5797 115.498L70.8497 115.018L69.0678 116.592L66.6373 114.554L67.8798 112.523L67.2814 111.888C66.6317 111.198 66.0344 110.491 65.509 109.788L64.987 109.091L62.7812 109.959L61.1945 107.212L63.0484 105.735L62.7026 104.933C62.344 104.097 62.0261 103.228 61.7634 102.349L61.5124 101.513L59.1422 101.574L58.5928 98.4488L60.8443 97.6936L60.7952 96.8236C60.7684 96.3691 60.7528 95.9106 60.7528 95.4494C60.7528 94.9876 60.7684 94.5297 60.7935 94.0741L60.8432 93.2035L58.5917 92.4489L59.141 89.3235L61.5124 89.3843L61.7634 88.5483C62.0261 87.6699 62.344 86.8004 62.7026 85.9644L63.0484 85.163L61.1945 83.6861L62.7812 80.9388L64.987 81.8072L65.509 81.109C66.0344 80.4057 66.6306 79.6996 67.2814 79.0097L67.8798 78.3745L66.6373 76.3439L69.0678 74.3049L70.8497 75.8787L71.5797 75.3991C72.3343 74.9022 73.134 74.4398 73.9578 74.0238L74.7364 73.6311L74.264 71.3044L77.2449 70.2196L78.3777 72.306L79.2265 72.1064C80.12 71.8961 81.0301 71.736 81.9314 71.6312L82.7992 71.5308L83.1522 69.1789H86.3239L86.6781 71.5319L87.5465 71.6323C88.4477 71.7371 89.3579 71.8972 90.2497 72.1075L91.0996 72.3071L92.2329 70.2207L95.2139 71.3055L94.7409 73.6323L95.5201 74.0254C96.3432 74.4409 97.143 74.9033 97.8982 75.4002L98.6276 75.8798L100.41 74.306L102.84 76.345L101.597 78.3756L102.196 79.0108C102.846 79.7007 103.443 80.4079 103.969 81.1101L104.491 81.8083L106.696 80.94L108.283 83.6873L106.429 85.1641L106.775 85.9655C106.987 86.458 107.177 86.9627 107.358 87.4724L103.75 87.2538L100.958 82.419L98.283 83.1842C97.8786 82.738 97.4503 82.3108 97.0058 81.9076L97.7721 79.2322L92.2692 76.0561L90.3278 78.065C89.7567 77.8815 89.1772 77.7259 88.595 77.6004L87.914 74.8899H81.5633L80.8851 77.6015C80.3023 77.727 79.7234 77.8826 79.1523 78.0661L77.2104 76.0572L71.7074 79.2334L72.4737 81.9087C72.0287 82.3131 71.6014 82.7391 71.1971 83.1853L68.5218 82.4201L65.3456 87.9209L67.3556 89.8639C67.1715 90.435 67.0165 91.0128 66.891 91.5956L64.1794 92.2727V98.6256L66.8899 99.3043C67.0154 99.8855 67.1704 100.465 67.3545 101.036L65.3445 102.979L68.5206 108.479L71.196 107.714C71.6003 108.161 72.0287 108.588 72.4726 108.991L71.7063 111.665L77.2081 114.842L79.1512 112.832C79.7223 113.016 80.3012 113.172 80.884 113.297L81.5633 116.009H87.9151L88.5938 113.297C89.1761 113.172 89.7555 113.016 90.3266 112.832L92.2692 114.842L97.771 111.665L97.0047 108.991C97.4503 108.587 97.8775 108.161 98.2819 107.714L100.957 108.479L103.749 103.644L107.356 103.426C107.177 103.936 106.986 104.442 106.774 104.933L106.428 105.735L108.282 107.21ZM85.8811 84.0927C88.098 84.3108 90.1655 85.1579 91.8754 86.5344L91.6534 86.521C89.7405 86.4044 87.8058 86.3481 85.88 86.3291V84.0927H85.8811ZM83.5967 86.3905C79.4708 86.908 76.1987 90.1813 75.68 94.3072H73.3739C73.9121 88.9192 78.2076 84.6225 83.5956 84.0855V86.3905H83.5967ZM75.68 96.5916C76.1976 100.717 79.4708 103.99 83.5967 104.508V106.814C78.2087 106.276 73.9121 101.98 73.375 96.5927H75.68V96.5916ZM85.8811 104.57C87.8058 104.55 89.7416 104.494 91.6546 104.378L91.8765 104.364C90.1655 105.741 88.098 106.588 85.8811 106.806V104.57ZM91.5168 102.097C89.2709 102.233 86.991 102.303 84.7389 102.303C80.9593 102.303 77.8858 99.229 77.8858 95.4494C77.8858 91.6698 80.9593 88.5962 84.7389 88.5962C86.991 88.5962 89.2709 88.666 91.5168 88.802L94.2886 88.9699C92.862 90.4272 91.5921 92.5415 91.5921 95.4494C91.5921 98.3573 92.862 100.472 94.2886 101.929L91.5168 102.097ZM95.2981 86.7424C92.683 83.5685 88.8749 81.7431 84.7389 81.7431C77.1808 81.7431 71.0326 87.8913 71.0326 95.4494C71.0326 103.007 77.1808 109.156 84.7389 109.156C88.8732 109.156 92.683 107.33 95.2981 104.156L101.014 103.81L99.8697 105.793L97.496 105.115L97.0198 105.686C96.4007 106.427 95.7119 107.115 94.9752 107.73L94.403 108.207L95.0823 110.58L92.6702 111.972L90.9457 110.188L90.2475 110.445C89.3406 110.779 88.4064 111.029 87.4684 111.19L86.7344 111.316L86.1321 113.725H83.3452L82.7434 111.316L82.0089 111.19C81.0725 111.029 80.1367 110.778 79.2298 110.445L78.5321 110.188L76.8071 111.972L74.395 110.58L75.0749 108.207L74.5027 107.73C73.7648 107.116 73.0772 106.428 72.4581 105.686L71.9818 105.115L69.6082 105.793L68.2156 103.382L69.9997 101.657L69.7432 100.959C69.4108 100.052 69.1592 99.1169 68.998 98.1783L68.8726 97.4449L66.4638 96.8415V94.0568L68.8714 93.455L68.9969 92.7216C69.1592 91.783 69.4096 90.8472 69.7415 89.9414L69.9986 89.2437L68.2145 87.5193L69.6071 85.1077L71.9807 85.7865L72.457 85.2154C73.076 84.4742 73.7648 83.7865 74.5016 83.1708L75.0738 82.6945L74.3939 80.3198L76.8049 78.9277L78.531 80.713L79.2287 80.4559C80.1356 80.1224 81.0703 79.8719 82.0078 79.7108L82.7423 79.5853L83.3452 77.1743H86.131L86.7333 79.583L87.4673 79.7085C88.4042 79.8697 89.3395 80.1212 90.2463 80.4536L90.9446 80.7102L92.6702 78.9249L95.0811 80.3176L94.4019 82.6923L94.9741 83.1686C95.7119 83.7832 96.3996 84.4703 97.0186 85.2132L97.4949 85.7843L99.8686 85.1055L101.013 87.0887L95.2981 86.7424ZM120.087 100.367L97.6628 101.726C96.1308 100.752 93.8765 98.765 93.8765 95.4494C93.8765 92.1338 96.1308 90.1472 97.6628 89.174L120.087 90.5332C122.682 90.6899 124.716 92.8499 124.716 95.4494C124.716 98.0489 122.682 100.209 120.087 100.367V100.367Z" fill="white"/>
<path d="M84.7391 92.0225C82.8496 92.0225 81.3125 93.5595 81.3125 95.449C81.3125 97.338 82.8496 98.8756 84.7391 98.8756C86.6281 98.8756 88.1657 97.338 88.1657 95.449C88.1657 93.5595 86.6281 92.0225 84.7391 92.0225ZM84.7391 96.5912C84.1083 96.5912 83.5969 96.0781 83.5969 95.449C83.5969 94.8194 84.1083 94.3068 84.7391 94.3068C85.3693 94.3068 85.8813 94.8194 85.8813 95.449C85.8813 96.0781 85.3693 96.5912 84.7391 96.5912Z" fill="white"/>
<path d="M119.005 92.0225C117.115 92.0225 115.578 93.5595 115.578 95.449C115.578 97.338 117.115 98.8756 119.005 98.8756C120.894 98.8756 122.431 97.338 122.431 95.449C122.431 93.5595 120.894 92.0225 119.005 92.0225ZM119.005 96.5912C118.374 96.5912 117.863 96.0781 117.863 95.449C117.863 94.8194 118.374 94.3068 119.005 94.3068C119.635 94.3068 120.147 94.8194 120.147 95.449C120.147 96.0781 119.635 96.5912 119.005 96.5912Z" fill="white"/>
</g>
<defs>
<clipPath id="clip0">
<rect width="71" height="71" fill="white" transform="translate(56 60)"/>
</clipPath>
</defs>
</svg>
