<svg width="13" height="15" viewBox="0 0 13 15" fill="none" xmlns="http://www.w3.org/2000/svg">
<path d="M6.5 0C4.75964 0 3.12659 0.769937 1.90132 2.16948C-0.633774 5.06436 -0.633774 9.77456 1.90132 12.6694C3.12724 14.069 4.76029 14.8397 6.5 14.8397C8.23971 14.8397 9.87341 14.069 11.0987 12.6694C13.6338 9.7753 13.6338 5.0651 11.0987 2.16948C9.87275 0.769937 8.24036 0 6.5 0ZM10.1791 11.6188C9.19898 12.7377 7.89176 13.354 6.5 13.354C5.10823 13.354 3.80102 12.7377 2.82093 11.6188C0.793111 9.3031 0.793111 5.53508 2.82093 3.21933C3.80102 2.10044 5.10758 1.48493 6.5 1.48493C7.89241 1.48493 9.19898 2.10044 10.1791 3.21933C12.2069 5.53508 12.2069 9.3031 10.1791 11.6188Z" fill="black"/>
<path d="M6.1508 6.77012L4.06055 9.15639L4.98015 10.2062L7.0704 7.81996L8.45241 9.39695V5.19238H4.76944L6.1508 6.77012Z" fill="black"/>
</svg>
