<svg width="12" height="12" viewBox="0 0 12 12" fill="none" xmlns="http://www.w3.org/2000/svg">
<path d="M5.13177 10.2635C6.31592 10.2635 7.4045 9.8562 8.27305 9.18073L11.093 12.0006L12 11.0936L9.18009 8.27369C9.8562 7.4045 10.2635 6.31592 10.2635 5.13177C10.2635 2.30224 7.9613 0 5.13177 0C2.30224 0 0 2.30224 0 5.13177C0 7.9613 2.30224 10.2635 5.13177 10.2635ZM5.13177 1.28294C7.2544 1.28294 8.9806 3.00914 8.9806 5.13177C8.9806 7.2544 7.2544 8.9806 5.13177 8.9806C3.00914 8.9806 1.28294 7.2544 1.28294 5.13177C1.28294 3.00914 3.00914 1.28294 5.13177 1.28294Z" fill="black"/>
<path d="M6.03691 4.22431C6.28003 4.46807 6.4141 4.79009 6.4141 5.13135H7.69704C7.69704 4.44819 7.43019 3.80415 6.94395 3.31727C5.97277 2.34737 4.28891 2.34737 3.31836 3.31727L4.22412 4.2256C4.71163 3.73936 5.55196 3.74064 6.03691 4.22431Z" fill="black"/>
</svg>
