<svg width="15" height="15" viewBox="0 0 15 15" fill="none" xmlns="http://www.w3.org/2000/svg">
<g clip-path="url(#clip0)">
<path d="M14.0473 9.78561C14.1618 9.2888 14.2234 8.78242 14.2234 8.27552C14.2234 5.92336 13.0257 3.78147 11.0193 2.54629C10.897 2.47129 10.7382 2.50931 10.6635 2.63086C10.5885 2.75267 10.6265 2.91173 10.7481 2.98673C12.6003 4.12724 13.7062 6.10414 13.7062 8.27552C13.7062 8.7219 13.6544 9.16802 13.558 9.60664C13.4387 9.58181 13.3154 9.56862 13.1889 9.56862C12.1906 9.56862 11.3786 10.3809 11.3786 11.379C11.3786 12.377 12.1906 13.1893 13.1889 13.1893C14.1872 13.1893 14.9993 12.377 14.9993 11.379C14.9993 10.6913 14.6137 10.0921 14.0473 9.78561Z" fill="#2D9CDB"/>
<path d="M9.87181 14.013C9.11793 14.3249 8.32009 14.4831 7.5 14.4831C5.84871 14.4831 4.26026 13.8172 3.09905 12.649C3.42129 12.3218 3.62069 11.8739 3.62069 11.3797C3.62069 10.3817 2.80862 9.56934 1.81034 9.56934C0.812069 9.56934 0 10.3817 0 11.3797C0 12.3777 0.812069 13.19 1.81034 13.19C2.12741 13.19 2.42534 13.1075 2.68474 12.9637C3.94655 14.2597 5.6881 15.0004 7.5 15.0004C8.38836 15.0004 9.25293 14.8289 10.0697 14.4906C10.2016 14.4361 10.2644 14.2848 10.2098 14.1526C10.1553 14.021 10.0037 13.9584 9.87181 14.013Z" fill="#2D9CDB"/>
<path d="M1.03532 8.07233C1.04153 8.07284 1.04773 8.0731 1.05368 8.0731C1.18842 8.0731 1.3017 7.96914 1.31153 7.83259C1.49566 5.22336 3.27342 3.04293 5.76497 2.32034C5.98584 3.07086 6.67972 3.62069 7.50084 3.62069C8.49911 3.62069 9.31118 2.80836 9.31118 1.81034C9.31118 0.812328 8.49911 0 7.50084 0C6.50489 0 5.69437 0.808707 5.69075 1.80388C2.95429 2.56603 0.996785 4.94483 0.795578 7.79638C0.785492 7.93862 0.89282 8.0625 1.03532 8.07233Z" fill="#2D9CDB"/>
</g>
<defs>
<clipPath id="clip0">
<rect width="15" height="15" fill="white"/>
</clipPath>
</defs>
</svg>
