<svg width="28" height="28" viewBox="0 0 28 28" fill="none" xmlns="http://www.w3.org/2000/svg">
<g clip-path="url(#clip0)">
<path d="M25.2189 3.32954L14.2359 0.0346172C14.0823 -0.0115391 13.9183 -0.0115391 13.7645 0.0346172L2.78139 3.32954C2.43439 3.43361 2.19678 3.75298 2.19678 4.11523V16.1966C2.19678 17.768 2.8329 19.3765 4.08749 20.9776C5.04572 22.2004 6.37135 23.4283 8.02761 24.6273C10.8099 26.6413 13.5497 27.8768 13.665 27.9284C13.7716 27.9761 13.8858 28 14.0001 28C14.1144 28 14.2287 27.9762 14.3353 27.9284C14.4506 27.8768 17.1903 26.6413 19.9726 24.6273C21.6288 23.4283 22.9545 22.2004 23.9127 20.9776C25.1673 19.3766 25.8034 17.768 25.8034 16.1966V4.11523C25.8035 3.75298 25.5659 3.43361 25.2189 3.32954ZM24.1628 16.1966C24.1628 18.9775 21.3725 21.5852 19.0317 23.283C16.9331 24.8052 14.8049 25.8852 14.0002 26.2732C13.1955 25.8852 11.0672 24.8052 8.96862 23.283C6.62778 21.5852 3.8374 18.9775 3.8374 16.1966V4.72555L14.0001 1.67672L24.1628 4.72555V16.1966Z" fill="#0AD06F"/>
</g>
<defs>
<clipPath id="clip0">
<rect width="28" height="28" fill="white"/>
</clipPath>
</defs>
</svg>
