<svg width="18" height="18" viewBox="0 0 18 18" fill="none" xmlns="http://www.w3.org/2000/svg">
<g clip-path="url(#clip0)">
<path d="M9.00196 5.625C8.38176 5.625 7.87695 6.12981 7.87695 6.75001V7.87502H10.127V6.75001C10.127 6.12981 9.62216 5.625 9.00196 5.625Z" fill="#2D9CDB"/>
<path d="M16.2367 0.110551C15.8461 -0.0767632 15.3836 -0.0229386 15.0451 0.248435C13.6395 1.3784 11.1093 1.37784 9.70579 0.248997C9.29379 -0.0828101 8.70714 -0.0822477 8.29514 0.248435C6.89007 1.37837 4.3588 1.3778 2.95581 0.248962C2.61792 -0.0229386 2.15389 -0.0767984 1.76481 0.110516C1.3744 0.297302 1.12556 0.692251 1.12556 1.12513L1.125 10.1252C1.125 13.6513 3.95179 16.5784 8.68625 17.9555C8.78898 17.9852 8.89445 18 9.00052 18C9.10648 18 9.21202 17.9852 9.31475 17.9555C14.0493 16.5784 16.8755 13.6519 16.8755 10.1252V1.12513C16.8755 0.692251 16.6272 0.297302 16.2367 0.110551ZM12.3755 11.2499C12.3755 11.8715 11.8719 12.3749 11.2505 12.3749H6.75047C6.12911 12.3749 5.62546 11.8715 5.62546 11.2499V8.99991C5.62546 8.37863 6.12911 7.8749 6.75047 7.8749V6.7499C6.75047 5.50954 7.75956 4.49988 9.00048 4.49988C10.2414 4.49988 11.2505 5.50954 11.2505 6.7499V7.8749C11.8719 7.8749 12.3755 8.37863 12.3755 8.99991V11.2499Z" fill="#2D9CDB"/>
<path d="M9.00196 9.5625C8.69132 9.5625 8.43945 9.81436 8.43945 10.125C8.43945 10.4359 8.69132 10.6875 9.00196 10.6875C9.3126 10.6875 9.56447 10.4359 9.56447 10.125C9.56447 9.81436 9.3126 9.5625 9.00196 9.5625Z" fill="#2D9CDB"/>
</g>
<defs>
<clipPath id="clip0">
<rect width="18" height="18" fill="white"/>
</clipPath>
</defs>
</svg>
