<svg width="191" height="191" viewBox="0 0 191 191" fill="none" xmlns="http://www.w3.org/2000/svg">
<path d="M191 95.5C191 148.243 148.5 88 95.5 191C42.7568 191 0 148.243 0 95.5C0 42.7568 42.7568 0 95.5 0C148.243 0 191 42.7568 191 95.5Z" fill="#ED6262"/>
<path d="M105.752 77.13H97.898V74.1746C97.8955 71.8571 96.0175 69.979 93.7 69.9766H80.3C77.9825 69.979 76.1044 71.8571 76.102 74.1746V77.13H68.2475C65.3507 77.1333 63.0033 79.4807 63 82.3775V106.768C63.0033 109.665 65.3507 112.012 68.2475 112.015H105.752C108.649 112.012 110.997 109.665 111 106.768V82.3775C110.997 79.4807 108.649 77.1333 105.752 77.13V77.13ZM78.201 74.1746C78.2022 73.016 79.1414 72.0768 80.3 72.0756H93.7C94.8585 72.0768 95.7977 73.016 95.799 74.1746V77.13H78.201V74.1746ZM83.4829 85.446L87.963 89.9265L82.1649 95.7763L77.6811 91.2478L83.4829 85.446ZM108.901 106.768C108.899 108.506 107.491 109.915 105.752 109.916H68.2475C66.5093 109.915 65.1011 108.506 65.099 106.768V82.3775C65.1011 80.6392 66.5093 79.231 68.2475 79.229H82.374V83.5865L75.4587 90.5017C75.0504 90.9104 75.0488 91.5721 75.4555 91.9825L81.4167 98.0032C81.6131 98.2016 81.8804 98.3135 82.16 98.3143H82.1624C82.4408 98.3143 82.7077 98.2036 82.9045 98.0069L83.4538 97.4579L90.1899 90.662C90.5966 90.2516 90.5953 89.5895 90.1866 89.1812L84.473 83.4676V79.229H105.752C107.491 79.231 108.899 80.6392 108.901 82.3775V106.768Z" fill="white"/>
</svg>
