<svg width="20" height="20" viewBox="0 0 20 20" fill="none" xmlns="http://www.w3.org/2000/svg">
<path d="M17.9167 15.0006H19.5833C19.7534 15.0006 19.9068 14.8972 19.9699 14.7393C19.9902 14.6889 20 14.636 20 14.5839C20 14.4725 19.9552 14.3634 19.8714 14.2829L10.2882 5.11632C10.1271 4.96253 9.87321 4.96253 9.71208 5.11632L0.128904 14.2829C0.00601578 14.4009 -0.0338669 14.5815 0.0304298 14.7394C0.0935135 14.8973 0.24691 15.0007 0.416986 15.0007H2.08364C2.19024 15.0007 2.29278 14.96 2.37008 14.8867L10.0002 7.65776L17.6302 14.8867C17.7075 14.9599 17.8101 15.0006 17.9167 15.0006Z" fill="white"/>
</svg>
