<svg width="15" height="15" viewBox="0 0 15 15" fill="none" xmlns="http://www.w3.org/2000/svg">
<g clip-path="url(#clip0)">
<path d="M13.7863 3.87111L11.9476 3.05319L11.129 1.2138L9.12797 1.42277L7.50004 0.242188L5.87116 1.42277L3.87111 1.2138L3.05307 3.05236L1.21368 3.87111L1.42277 5.8721L0.242188 7.50004L1.42277 9.12892L1.21368 11.129L3.05236 11.9469L3.87111 13.7863L5.8721 13.5773L7.50004 14.7579L9.12892 13.5773L11.129 13.7863L11.9469 11.9476L13.7863 11.129L13.5772 9.12798L14.7579 7.50004L13.5772 5.87116L13.7863 3.87111ZM6.04847 10.4032L3.99444 8.34915L4.67912 7.66695L6.04847 9.03383L10.1539 4.92837L10.8386 5.61293L6.04847 10.4032Z" fill="#57A4FF"/>
<path d="M14.9557 7.35791L13.8292 5.80392L14.0288 3.89542C14.0397 3.79112 13.9823 3.69177 13.8865 3.64913L12.1331 2.86888L11.3529 1.11537C11.31 1.01981 11.2107 0.962516 11.1066 0.972911L9.19771 1.17243L7.64384 0.0460703C7.55914 -0.0153568 7.44456 -0.0153568 7.35986 0.0460703L5.80587 1.17243L3.89714 0.972911C3.79307 0.962988 3.69419 1.02016 3.65084 1.11514L2.8706 2.86865L1.11709 3.64913C1.02141 3.69165 0.963996 3.791 0.974864 3.89519L1.17438 5.80392L0.0480235 7.35791C-0.0134037 7.4426 -0.0134037 7.55719 0.0480235 7.64189L1.17438 9.19576L0.974864 11.1046C0.963878 11.2088 1.02129 11.3083 1.11709 11.3509L2.8706 12.1311L3.65084 13.8847C3.69396 13.9799 3.79295 14.0372 3.89714 14.0271L5.80587 13.8275L7.35986 14.954C7.44456 15.0154 7.55914 15.0154 7.64384 14.954L9.19771 13.8275L11.1066 14.0271C11.2107 14.0376 11.3099 13.9803 11.3529 13.8849L12.1331 12.1314L13.8865 11.3509C13.9822 11.3083 14.0396 11.209 14.0288 11.1048L13.8292 9.19599L14.9557 7.64212C15.0172 7.55743 15.0172 7.4426 14.9557 7.35791V7.35791ZM13.3831 8.98679C13.3481 9.0351 13.3321 9.09464 13.3384 9.15394L13.529 10.98L11.8512 11.7269C11.7964 11.751 11.7525 11.7947 11.7283 11.8495L10.9819 13.5273L9.15542 13.3364C9.09612 13.3303 9.0367 13.3463 8.9885 13.3814L7.50185 14.459L6.01496 13.3814C5.97373 13.3513 5.92412 13.3351 5.8732 13.3352C5.8647 13.3352 5.85619 13.3352 5.84899 13.3364L4.02236 13.5273L3.27602 11.8495C3.25168 11.7947 3.20798 11.7509 3.15316 11.7266L1.47443 10.98L1.66509 9.15394C1.67123 9.09464 1.65529 9.0351 1.62032 8.98679L0.542748 7.4999L1.62032 6.01301C1.65529 5.96469 1.67123 5.90515 1.66509 5.84585L1.47443 4.0197L3.15222 3.27288C3.20703 3.24879 3.25086 3.20508 3.27507 3.15027L4.02141 1.47248L5.84804 1.66338C5.90722 1.66928 5.96664 1.65322 6.01496 1.61837L7.50185 0.540795L8.98874 1.61837C9.03694 1.65333 9.09635 1.66928 9.15566 1.66338L10.9822 1.47248L11.7285 3.15027C11.7528 3.20508 11.7967 3.24879 11.8515 3.27312L13.5293 4.0197L13.3386 5.84585C13.3323 5.90515 13.3483 5.96469 13.3834 6.01301L14.4608 7.4999L13.3831 8.98679Z" fill="#1E81CE"/>
<path d="M10.3254 4.7574C10.2309 4.6629 10.0778 4.6629 9.98326 4.7574L6.04885 8.69181L4.85055 7.49575C4.75617 7.4016 4.60331 7.4016 4.50892 7.49575L3.82307 8.17748C3.77759 8.22284 3.75195 8.2845 3.75195 8.34876C3.75195 8.41302 3.77759 8.47469 3.82307 8.52005L5.87709 10.5741C5.97148 10.6685 6.12469 10.6685 6.2192 10.5741L11.0093 5.78382C11.1037 5.68944 11.1037 5.53623 11.0093 5.44172L10.3254 4.7574ZM6.04885 10.0612L4.33716 8.34947L4.67927 8.0082L5.87804 9.20449C5.97242 9.29876 6.1254 9.29876 6.2199 9.20449L10.1543 5.27044L10.4969 5.61301L6.04885 10.0612Z" fill="#1E81CE"/>
</g>
<defs>
<clipPath id="clip0">
<rect width="15" height="15" fill="white"/>
</clipPath>
</defs>
</svg>
