<svg width="202" height="219" viewBox="0 0 202 219" fill="none" xmlns="http://www.w3.org/2000/svg">
<path d="M202 123.5C202 176.243 159.5 116 106.5 219C53.7568 219 0 176.243 0 123.5C0 97.8975 48.5986 95.648 65 78.5C82.3868 60.3217 79.3593 0.5 106.5 0.5C159.243 0.5 202 70.7568 202 123.5Z" fill="#4D7CF2"/>
<g clip-path="url(#clip0)">
<path d="M87.8578 103.769C87.8578 103.111 88.3924 102.576 89.0511 102.576H117.488C118.147 102.576 118.681 103.111 118.681 103.769C118.681 104.429 118.147 104.963 117.488 104.963H89.0511C88.3928 104.962 87.8578 104.431 87.8578 103.769ZM89.0511 115.305H117.488C118.147 115.305 118.681 114.769 118.681 114.112C118.681 113.457 118.147 112.919 117.488 112.919H89.0511C88.3928 112.919 87.8578 113.453 87.8578 114.112C87.8578 114.771 88.3928 115.305 89.0511 115.305ZM101.347 123.256H89.0534C88.3951 123.256 87.8601 123.794 87.8601 124.449C87.8601 125.111 88.3947 125.642 89.0534 125.642H101.347C102.007 125.642 102.541 125.111 102.541 124.449C102.541 123.79 102.007 123.256 101.347 123.256ZM99.756 133.599H89.0534C88.3951 133.599 87.8601 134.133 87.8601 134.792C87.8601 135.449 88.3947 135.985 89.0534 135.985H99.756C100.415 135.985 100.949 135.449 100.949 134.792C100.949 134.132 100.415 133.599 99.756 133.599ZM133.46 134.988C133.46 143.268 126.73 150 118.448 150C114.577 150 111.058 148.518 108.392 146.104C108.39 146.104 108.385 146.109 108.381 146.109H80.7324C80.073 146.109 79.5391 145.57 79.5391 144.916V89.103C79.5391 88.4444 80.073 87.9097 80.7324 87.9097H90.8093V84.631C90.8093 83.9727 91.3439 83.438 92.0026 83.438H96.8929C96.8929 83.4193 96.8929 83.3975 96.8929 83.3787C96.8929 79.8604 99.756 77 103.274 77C106.792 77 109.653 79.8604 109.653 83.3783C109.653 83.3971 109.653 83.4189 109.653 83.4377H114.542C115.199 83.4377 115.735 83.9723 115.735 84.6306V87.9093H125.809C126.469 87.9093 127.002 88.444 127.002 89.1026V122.664C130.902 125.379 133.46 129.889 133.46 134.988ZM93.1955 91.6687H113.347V85.8262H108.287C107.922 85.8262 107.572 85.6574 107.345 85.3658C107.117 85.0742 107.039 84.696 107.13 84.3405C107.223 83.9746 107.265 83.6715 107.265 83.3803C107.265 81.1781 105.473 79.3881 103.271 79.3881C101.069 79.3881 99.2765 81.1781 99.2765 83.3803C99.2765 83.6715 99.3197 83.9861 99.4093 84.3451C99.4977 84.7002 99.4173 85.0791 99.1927 85.3681C98.9692 85.657 98.6205 85.8258 98.2523 85.8258H93.1955V91.6687ZM81.9257 143.717H106.259C104.489 141.256 103.433 138.246 103.433 134.987C103.433 126.71 110.168 119.97 118.446 119.97C120.643 119.97 122.727 120.46 124.612 121.31V90.2936H115.731V92.8571C115.731 93.5153 115.195 94.05 114.538 94.05H92.0003C91.342 94.05 90.807 93.5153 90.807 92.8571V90.2936H81.9234L81.9257 143.717ZM131.074 134.988C131.074 128.025 125.409 122.357 118.448 122.357C111.487 122.357 105.822 128.024 105.822 134.988C105.822 141.951 111.487 147.614 118.448 147.614C125.409 147.614 131.074 141.951 131.074 134.988ZM125.029 130.014L117.721 137.022L112.776 133.07C112.261 132.66 111.512 132.743 111.098 133.256C110.688 133.774 110.771 134.519 111.284 134.934L117.045 139.543C117.264 139.716 117.527 139.8 117.79 139.8C118.089 139.8 118.387 139.688 118.616 139.467L126.676 131.737C127.149 131.285 127.168 130.523 126.711 130.05C126.255 129.569 125.502 129.56 125.029 130.014Z" fill="white"/>
</g>
<defs>
<clipPath id="clip0">
</clipPath>
</defs>
</svg>
